<?xml version="1.0" standalone="no"?>
<!DOCTYPE svg PUBLIC "-//W3C//DTD SVG 1.1//EN" "http://www.w3.org/Graphics/SVG/1.1/DTD/svg11.dtd" >
<svg xmlns="http://www.w3.org/2000/svg" xmlns:xlink="http://www.w3.org/1999/xlink" version="1.1">
<metadata></metadata>
<defs>
<font id="dinamitmedium" horiz-adv-x="768" >
<font-face units-per-em="1000" ascent="776" descent="-224" />
<missing-glyph horiz-adv-x="263" />
<glyph horiz-adv-x="0" />
<glyph horiz-adv-x="333" />
<glyph horiz-adv-x="0" />
<glyph horiz-adv-x="0" />
<glyph unicode="&#xd;" horiz-adv-x="0" />
<glyph unicode=" "  horiz-adv-x="263" />
<glyph unicode="&#x09;" horiz-adv-x="263" />
<glyph unicode="&#xa0;" horiz-adv-x="263" />
<glyph unicode="!" horiz-adv-x="259" d="M171 215h-82l-30 289v206h141v-206zM129 -10q-38 0 -62 23.5t-24 60.5t24 60.5t62 23.5t62.5 -23.5t24.5 -60.5t-24 -60.5t-63 -23.5z" />
<glyph unicode="&#x22;" horiz-adv-x="443" d="M180 492l-129 -73v291h129v-218zM391 492l-129 -73v291h129v-218z" />
<glyph unicode="#" horiz-adv-x="759" d="M422 186h-164l-44 -186h-99l44 186h-125v102h149l33 140h-142v101h165l43 181h99l-43 -181h164l43 181h99l-43 -181h124v-101h-147l-33 -140h139v-102h-163l-44 -186h-99zM479 428h-164l-33 -140h164z" />
<glyph unicode="$" horiz-adv-x="787" d="M746 210q0 -98 -76.5 -155t-220.5 -67v-91h-94v90q-179 6 -319 72l46 116q138 -62 273 -69v197l-37 6q-140 23 -198 67q-58 46 -58 130q0 92 78 150q79 58 215 67v81h94v-81q152 -8 278 -66l-47 -111q-111 47 -231 58v-188l50 -8q132 -21 189.5 -67t57.5 -131zM202 514 q0 -34 32 -51.5t114 -30.5l7 -1v174q-153 -11 -153 -91zM606 201q0 35 -28 53.5t-100 30.5l-29 4v-182q157 14 157 94z" />
<glyph unicode="%" horiz-adv-x="964" d="M225 343q-87 0 -144 54t-57 135q0 82 57 136t144 54q88 0 143 -55q57 -54 57 -135t-57 -135q-56 -54 -143 -54zM284 0h-133l529 710h133zM225 438q41 0 66.5 26.5t25.5 67.5q0 42 -25.5 69t-66.5 27t-67 -27t-26 -69q0 -41 26 -67.5t67 -26.5zM740 -11q-87 0 -144 54 t-57 135t57 135t144 54q88 0 143 -54q57 -54 57 -135t-57 -135q-55 -54 -143 -54zM740 83q41 0 66.5 26.5t25.5 68.5t-25.5 68.5t-66.5 26.5t-67 -26.5t-26 -68.5t26 -68.5t67 -26.5z" />
<glyph unicode="&#x26;" horiz-adv-x="893" d="M672 61l-21 14q-121 -89 -322 -89q-146 0 -228.5 52t-82.5 143q0 67 46 114.5t144 81.5q-108 75 -108 155q0 84 74 138q75 54 191 54q117 0 188 -48t71 -127q0 -132 -177 -193l196 -135q61 77 65 183h123q-1 -135 -95 -246q61 -39 114 -44q3 0 17 -0.5t25 -0.5v-113h-51 q-82 0 -169 61zM239 542q0 -25 19 -47q20 -23 78 -63l11 -8l18 6q127 41 127 109q0 40 -33.5 62t-94.5 22q-56 0 -90.5 -22t-34.5 -59zM162 192q0 -46 47.5 -72t130.5 -26q124 0 210 50l-242 165l-18 -6q-69 -24 -98.5 -49.5t-29.5 -61.5z" />
<glyph unicode="'" horiz-adv-x="231" d="M180 492l-129 -73v291h129v-218z" />
<glyph unicode="(" horiz-adv-x="375" d="M43 281q0 134 49 253t138 200h139q-189 -202 -189 -453t189 -453h-139q-89 81 -138 200t-49 253z" />
<glyph unicode=")" horiz-adv-x="375" d="M331 281q0 -136 -48.5 -254.5t-137.5 -198.5h-139q189 205 189 453t-189 453h139q89 -80 137.5 -198.5t48.5 -254.5z" />
<glyph unicode="*" horiz-adv-x="596" d="M298 441l-122 -165l-75 52l118 153l-174 52l30 82l177 -49v182h92v-182l177 49l30 -82l-174 -52l118 -153l-75 -52z" />
<glyph unicode="+" horiz-adv-x="648" d="M383 71h-118v222h-221v115h221v223h118v-223h221v-115h-221v-222z" />
<glyph unicode="," horiz-adv-x="234" d="M182 -122l-131 -78v344h131v-266z" />
<glyph unicode="-" horiz-adv-x="553" d="M495 350v-115h-437v115h437z" />
<glyph unicode="." horiz-adv-x="281" d="M140 -11q-38 0 -63 24.5t-25 61.5t25 61.5t63 24.5t63.5 -24.5t25.5 -61.5t-25.5 -61.5t-63.5 -24.5z" />
<glyph unicode="/" horiz-adv-x="534" d="M143 -104h-134l382 838h133z" />
<glyph unicode="0" horiz-adv-x="795" d="M397 -14q-162 0 -259 100q-96 100 -96 270q0 168 96 268q97 100 259 100t259 -100t97 -268q0 -170 -97 -270q-96 -100 -259 -100zM397 607q-95 0 -154 -69q-59 -70 -59 -182q0 -114 59 -184q59 -69 154 -69q97 0 155 69q59 70 59 184q0 113 -60 182q-58 69 -154 69z" />
<glyph unicode="1" horiz-adv-x="473" d="M401 710v-710h-133v559l-232 -193v154l234 190h131z" />
<glyph unicode="2" horiz-adv-x="699" d="M219 114h446v-114h-628v124l377 250q57 38 76 65q19 25 19 57q0 53 -42.5 84t-117.5 31q-82 0 -128 -35.5t-51 -101.5h-133q4 120 87 185t231 65q139 0 218 -59.5t79 -163.5q0 -64 -37 -114.5t-123 -103.5z" />
<glyph unicode="3" horiz-adv-x="726" d="M31 214h134q4 -56 54.5 -85.5t141.5 -29.5q88 0 136.5 30t48.5 84q0 45 -40.5 70t-113.5 25h-118v105h115q64 0 102.5 26.5t38.5 70.5q0 46 -46.5 73t-126.5 27q-84 0 -131.5 -27t-52.5 -78h-132q3 102 88.5 160.5t232.5 58.5q141 0 226 -56q85 -55 85 -148 q0 -57 -34 -97t-94 -55q70 -17 107 -59t37 -102q0 -102 -88 -162q-88 -59 -237 -59q-327 0 -333 228z" />
<glyph unicode="4" horiz-adv-x="730" d="M474 258v153h131v-153h103v-113h-103v-145h-131v145h-441v115l404 450h168l-412 -452h281z" />
<glyph unicode="5" horiz-adv-x="738" d="M372 -14q-192 0 -324 77l50 106q134 -68 273 -68q90 0 142.5 34.5t52.5 94.5q0 56 -45.5 89t-120.5 33q-106 0 -204 -68h-122l3 426h591v-114h-469l-2 -194q90 63 223 63q131 0 207 -64q77 -63 77 -170q0 -111 -91 -178t-241 -67z" />
<glyph unicode="6" horiz-adv-x="762" d="M433 455q138 0 216 -59.5t78 -163.5q0 -103 -93 -175q-92 -71 -236 -71q-167 0 -261 91t-94 250q0 180 106 287q106 109 283 109q166 0 287 -82l-59 -101q-121 68 -225 68q-111 0 -178.5 -61.5t-75.5 -167.5q123 76 252 76zM590 230q0 54 -42.5 83.5t-120.5 29.5 q-55 0 -121 -20.5t-122 -55.5q13 -76 73 -122q59 -45 144 -45q83 0 135 36q54 38 54 94z" />
<glyph unicode="7" horiz-adv-x="716" d="M163 596v-117h-129v231h660v-109l-385 -601h-157l393 596h-382z" />
<glyph unicode="8" horiz-adv-x="799" d="M757 198q0 -98 -96 -157q-95 -57 -261 -57t-262 57q-96 59 -96 157q0 60 38 105t106 65q-58 22 -89 62t-31 92q0 93 91 148q92 56 243 56q150 0 242 -56q91 -55 91 -148q0 -52 -31.5 -92.5t-88.5 -62.5q68 -19 106 -64t38 -105zM400 615q-89 0 -140.5 -26.5t-51.5 -72.5 q0 -45 51.5 -70.5t140.5 -25.5t140.5 26t51.5 70q0 46 -51.5 72.5t-140.5 26.5zM400 309q-102 0 -159 -28t-57 -78t58 -78.5t158 -28.5t157.5 28.5t57.5 78.5t-56.5 78t-158.5 28z" />
<glyph unicode="9" horiz-adv-x="758" d="M364 724q165 0 259 -94t94 -259q0 -177 -104 -281q-103 -103 -286 -103q-172 0 -294 79l53 103q120 -67 238 -67q119 0 186 61t69 172q-113 -76 -247 -76q-139 0 -216 57t-77 158q0 108 90 178q92 72 235 72zM357 610q-80 0 -130 -37t-50 -96q0 -50 43.5 -78t121.5 -28 q124 0 229 74q-11 75 -69 120t-145 45z" />
<glyph unicode=":" horiz-adv-x="281" d="M140 -11q-38 0 -63 24.5t-25 61.5t25 61.5t63 24.5t63.5 -24.5t25.5 -61.5t-25.5 -61.5t-63.5 -24.5zM140 382q-38 0 -63 24.5t-25 61.5t25 61.5t63 24.5t63.5 -24.5t25.5 -61.5t-25.5 -61.5t-63.5 -24.5z" />
<glyph unicode=";" horiz-adv-x="281" d="M205 -122l-131 -78v344h131v-266zM140 382q-38 0 -63 24.5t-25 61.5t25 61.5t63 24.5t63.5 -24.5t25.5 -61.5t-25.5 -61.5t-63.5 -24.5z" />
<glyph unicode="&#x3c;" horiz-adv-x="648" d="M604 178v-140l-560 219v131l560 218v-139l-408 -144z" />
<glyph unicode="=" horiz-adv-x="648" d="M604 413h-560v118h560v-118zM604 174h-560v117h560v-117z" />
<glyph unicode="&#x3e;" horiz-adv-x="648" d="M604 257l-560 -219v139l408 145l-408 145v139l560 -218v-131z" />
<glyph unicode="?" horiz-adv-x="684" d="M383 210h-133v33q0 57 24 92t82 62l72 35q44 22 60.5 40.5t16.5 46.5q0 43 -40.5 66t-118.5 23q-83 0 -131 -35.5t-50 -97.5h-132q0 117 83 183t230 66q145 0 223.5 -52.5t78.5 -147.5q0 -64 -32.5 -108t-103.5 -76l-61 -27q-66 -29 -67 -84zM318 -10q-38 0 -62 23.5 t-24 60.5t24 60.5t62 23.5t62.5 -23.5t24.5 -60.5t-24 -60.5t-63 -23.5z" />
<glyph unicode="@" horiz-adv-x="1015" d="M518 -201q-228 0 -359 122q-130 121 -130 334q0 198 135 326q136 127 348 127q211 0 342 -115q132 -114 132 -299q0 -118 -55 -186.5t-151 -68.5q-48 0 -85 20.5t-52 56.5q-19 -36 -65 -58.5t-101 -22.5q-98 0 -156 61q-59 62 -59 160q0 95 62 159q61 64 155 64 q43 0 81.5 -15.5t57.5 -39.5v50h97v-250q0 -83 72 -83q43 0 67 40.5t24 112.5q0 141 -101 227q-101 87 -265 87q-168 0 -272 -98q-102 -98 -102 -255q0 -168 100 -261q100 -94 282 -94q76 0 147 19t119 52l55 -82q-134 -90 -323 -90zM491 137q54 0 84.5 32t30.5 89 q0 56 -31 88.5t-84 32.5q-50 0 -81 -33.5t-31 -87.5q0 -55 30.5 -88t81.5 -33z" />
<glyph unicode="A" horiz-adv-x="903" d="M662 150h-426l-75 -150h-152l371 710h144l371 -710h-158zM605 264l-157 312l-155 -312h312z" />
<glyph unicode="B" horiz-adv-x="901" d="M851 203q0 -89 -65 -146q-64 -57 -167 -57h-546v710h535q103 0 164 -52t61 -138q0 -108 -90 -154q108 -44 108 -163zM589 593h-378v-172h380q45 0 73.5 24.5t28.5 63.5t-27.5 61.5t-76.5 22.5zM605 305h-394v-188h394q48 0 77 26t29 69q0 41 -29.5 67t-76.5 26z" />
<glyph unicode="C" horiz-adv-x="877" d="M459 -14q-193 0 -305 99t-112 270q0 167 118 267q118 102 309 102q250 0 370 -170l-104 -70q-101 123 -266 123q-128 0 -207 -70q-78 -69 -78 -182q0 -114 77 -183q77 -68 205 -68q87 0 158.5 34.5t114.5 96.5l101 -71q-55 -86 -152.5 -132t-228.5 -46z" />
<glyph unicode="D" horiz-adv-x="892" d="M461 0h-388v710h389q184 0 285 -94q103 -94 103 -261t-103 -261t-286 -94zM211 593v-476h234q127 0 195 62t68 177t-67.5 176t-195.5 61h-234z" />
<glyph unicode="E" horiz-adv-x="831" d="M791 0h-718v710h718v-117h-580v-172h482v-117h-482v-187h580v-117z" />
<glyph unicode="F" horiz-adv-x="818" d="M210 0h-139v710h717v-117h-578v-177h480v-118h-480v-298z" />
<glyph unicode="G" horiz-adv-x="932" d="M446 -14q-185 0 -295 98q-109 97 -109 266q0 167 121 270q122 104 314 104q123 0 219.5 -44t153.5 -126l-103 -70q-101 123 -271 123q-132 0 -212 -70q-80 -71 -80 -186q0 -113 74 -181q75 -66 201 -66q180 0 273 153h-235v111h380v-368h-109v144q-47 -77 -130 -117.5 t-192 -40.5z" />
<glyph unicode="H" horiz-adv-x="921" d="M211 421h499v289h138v-710h-138v301h-499v-301h-138v710h138v-289z" />
<glyph unicode="I" horiz-adv-x="284" d="M211 710v-710h-138v710h138z" />
<glyph unicode="J" horiz-adv-x="697" d="M496 710h138v-417q0 -147 -83.5 -227t-238.5 -80q-108 0 -186.5 41.5t-117.5 119.5l102 75q71 -114 201 -114q185 0 185 181v421z" />
<glyph unicode="K" horiz-adv-x="848" d="M211 0h-138v710h138v-377l433 377h185l-360 -308l373 -402h-183l-290 315l-158 -135v-180z" />
<glyph unicode="L" horiz-adv-x="732" d="M704 0h-631v710h138v-590h493v-120z" />
<glyph unicode="M" horiz-adv-x="1133" d="M207 0h-134v710h163l333 -528l333 528h159v-710h-135v518l-300 -478h-118l-301 478v-518z" />
<glyph unicode="N" horiz-adv-x="915" d="M207 710l501 -518v518h134v-710h-134l-501 517v-517h-134v710h134z" />
<glyph unicode="O" horiz-adv-x="943" d="M472 -14q-195 0 -313 101q-117 100 -117 268q0 167 117 268q118 101 313 101q194 0 312 -101q117 -101 117 -268q0 -168 -117 -268q-118 -101 -312 -101zM472 104q130 0 209 68q78 69 78 183q0 115 -78 182q-78 69 -209 69q-130 0 -210 -69q-78 -67 -78 -182 q0 -114 78 -183q80 -68 210 -68z" />
<glyph unicode="P" horiz-adv-x="869" d="M563 224h-352v-224h-138v710h484q130 0 204 -64.5t74 -176.5q0 -110 -74 -178q-73 -67 -198 -67zM539 593h-328v-252h328q73 0 113 33.5t40 94.5q0 60 -39.5 92t-113.5 32z" />
<glyph unicode="Q" horiz-adv-x="943" d="M472 -14q-195 0 -313 101q-117 100 -117 268q0 167 117 268q118 101 313 101q194 0 312 -101q117 -101 117 -268q0 -137 -80 -231l151 -124h-184l-59 48q-104 -62 -257 -62zM759 355q0 115 -78 182q-78 69 -209 69q-130 0 -210 -69q-78 -67 -78 -182q0 -114 78 -183 q80 -68 210 -68q74 0 137 25l-223 179h187l133 -109q53 62 53 156z" />
<glyph unicode="R" horiz-adv-x="889" d="M211 0h-138v710h518q113 0 183 -62q70 -61 70 -161q0 -96 -70 -156q-71 -59 -181 -59h-14l286 -272h-189l-267 267h-198v-267zM563 593h-352v-210h352q64 0 101 28t37 76q0 49 -37 77.5t-101 28.5z" />
<glyph unicode="S" horiz-adv-x="825" d="M782 210q0 -107 -98 -165.5t-278 -58.5q-209 0 -371 73l49 117q153 -71 326 -71q110 0 169 24.5t59 70.5q0 35 -29.5 53t-107.5 30l-174 26q-133 20 -195 66t-62 127q0 105 91 163q92 59 250 59q201 0 348 -66l-47 -111q-149 59 -306 59q-90 0 -141 -24t-51 -66 q0 -33 31 -50.5t109 -29.5l175 -27q134 -20 193.5 -67t59.5 -132z" />
<glyph unicode="T" horiz-adv-x="786" d="M324 590h-303v120h744v-120h-303v-590h-138v590z" />
<glyph unicode="U" horiz-adv-x="897" d="M695 710h139v-394q0 -159 -100 -244.5t-285 -85.5q-186 0 -286 85.5t-100 244.5v394h138v-382q0 -106 65 -164t183 -58q117 0 181.5 58t64.5 164v382z" />
<glyph unicode="V" horiz-adv-x="867" d="M710 710h153l-363 -710h-132l-363 710h161l272 -565z" />
<glyph unicode="W" horiz-adv-x="1297" d="M446 0h-168l-267 710h155l197 -576l202 576h168l205 -577l198 577h150l-267 -710h-169l-202 560z" />
<glyph unicode="X" horiz-adv-x="851" d="M662 0l-244 270l-237 -270h-171l326 361l-316 349h177l237 -261l228 261h168l-315 -351l326 -359h-179z" />
<glyph unicode="Y" horiz-adv-x="814" d="M811 710l-335 -456v-254h-139v254l-334 456h166l242 -341l245 341h155z" />
<glyph unicode="Z" horiz-adv-x="814" d="M775 117v-117h-733v104l512 489h-495v117h697v-99l-516 -494h535z" />
<glyph unicode="[" horiz-adv-x="356" d="M328 -172h-262v906h262v-111h-130v-684h130v-111z" />
<glyph unicode="\" horiz-adv-x="534" d="M390 -104l-381 838h133l382 -838h-134z" />
<glyph unicode="]" horiz-adv-x="356" d="M28 623v111h261v-906h-261v111h129v684h-129z" />
<glyph unicode="^" horiz-adv-x="634" d="M315 581l-144 -274h-143l218 403h141l218 -403h-146z" />
<glyph unicode="_" horiz-adv-x="470" d="M465 -111h-460v111h460v-111z" />
<glyph unicode="`" horiz-adv-x="458" d="M274 621l-216 144v6h168l174 -143v-7h-126z" />
<glyph unicode="a" d="M348 -14q-142 0 -228 78q-85 78 -85 208q0 128 86 206q86 79 227 79q143 0 224 -93v79h129v-543h-130v78q-80 -92 -223 -92zM367 98q91 0 145.5 47t54.5 127q0 79 -54.5 126t-145.5 47q-89 0 -142 -47t-53 -126t53 -126.5t142 -47.5z" />
<glyph unicode="b" d="M197 0h-129v748h133v-279q80 88 224 88q137 0 222 -79q86 -80 86 -206q0 -127 -86 -207q-85 -79 -222 -79q-147 0 -228 92v-78zM401 98q88 0 141.5 47.5t53.5 126.5q0 78 -53.5 125.5t-141.5 47.5q-90 0 -145 -47.5t-55 -125.5t55 -126t145 -48z" />
<glyph unicode="c" horiz-adv-x="664" d="M371 97q114 0 193 88l79 -83q-105 -116 -280 -116q-152 0 -240 76t-88 207q0 128 94 207q95 81 239 81q174 0 271 -102l-85 -83q-76 75 -184 75q-88 0 -143 -49t-55 -126q0 -78 55 -127q55 -48 144 -48z" />
<glyph unicode="d" d="M348 -14q-142 0 -228 78q-85 78 -85 208q0 128 86 206q86 79 227 79q138 0 219 -87v278h134v-748h-130v78q-80 -92 -223 -92zM367 98q91 0 145.5 47.5t54.5 126.5t-54.5 126t-145.5 47q-89 0 -142 -47t-53 -126q0 -80 53 -127t142 -47z" />
<glyph unicode="e" horiz-adv-x="731" d="M375 -14q-159 0 -250 76q-90 76 -90 209q0 127 93 206q95 80 242 80q144 0 233 -71q90 -70 90 -182q0 -51 -3 -66h-517q9 -67 65.5 -104t148.5 -37q63 0 120.5 20t95.5 55l73 -82q-42 -48 -122.5 -76t-178.5 -28zM371 453q-78 0 -130.5 -33t-65.5 -89h380q-6 55 -56 88.5 t-128 33.5z" />
<glyph unicode="f" horiz-adv-x="430" d="M407 748v-107h-97q-34 0 -48.5 -10.5t-14.5 -35.5v-52h160v-108h-160v-435h-133v435h-95v108h95v58q0 147 189 147h104z" />
<glyph unicode="g" d="M340 -224q-180 0 -293 74l51 107q104 -66 242 -66q126 0 181 52q49 45 49 134v22q-82 -94 -226 -94q-145 0 -227 72.5t-82 199.5t85 203q86 77 226 77q145 0 227 -93v79h128v-460q0 -143 -86 -223q-87 -84 -275 -84zM367 117q91 0 145.5 44t54.5 119t-54.5 120t-145.5 45 q-90 0 -142.5 -44t-52.5 -120t52.5 -120t142.5 -44z" />
<glyph unicode="h" horiz-adv-x="732" d="M201 0h-133v748h133v-289q67 98 216 98q113 0 181 -60q40 -35 57.5 -87.5t17.5 -138.5v-271h-133v273q0 104 -54 139q-41 29 -102 29q-124 0 -170 -102q-13 -31 -13 -74v-265z" />
<glyph unicode="i" horiz-adv-x="269" d="M134 615q-36 0 -59 22.5t-23 56.5q0 33 23 55.5t59 22.5t59 -22t23 -56t-23 -56.5t-59 -22.5zM201 0h-133v543h133v-543z" />
<glyph unicode="j" horiz-adv-x="269" d="M134 615q-36 0 -59 22.5t-23 56.5q0 33 23 55.5t59 22.5t59 -22t23 -56t-23 -56.5t-59 -22.5zM45 -210h-69v115h25q36 0 51.5 15t15.5 49v574h133v-595q0 -73 -42 -115.5t-114 -42.5z" />
<glyph unicode="k" horiz-adv-x="702" d="M331 244l-130 -110v-134h-133v748h133v-474l319 269h174l-263 -221l279 -322h-173z" />
<glyph unicode="l" horiz-adv-x="306" d="M255 110h37v-110h-80q-80 0 -113 29t-33 101v618h134v-593q0 -27 12 -36t43 -9z" />
<glyph unicode="m" horiz-adv-x="1182" d="M201 0h-133v543h129v-90q30 48 86 76t125 28q114 0 178 -64q28 -27 41 -56q77 120 235 120q119 0 183 -58q42 -36 60 -88.5t18 -139.5v-271h-133v273q0 104 -59 143q-39 25 -95 25q-54 0 -96 -26t-64 -74q-14 -33 -14 -78v-263h-133v273q0 104 -58 143q-42 25 -96 25 q-56 0 -98 -27t-63 -75q-13 -31 -13 -74v-265z" />
<glyph unicode="n" horiz-adv-x="732" d="M201 0h-133v543h129v-91q63 105 220 105q113 0 181 -60q40 -35 57.5 -87.5t17.5 -138.5v-271h-133v273q0 104 -54 139q-41 29 -102 29q-124 0 -170 -102q-13 -31 -13 -74v-265z" />
<glyph unicode="o" horiz-adv-x="743" d="M372 -14q-154 0 -246 78q-91 78 -91 208q0 131 91 207q92 78 246 78t245 -78q92 -77 92 -207t-92 -208q-91 -78 -245 -78zM372 98q91 0 145.5 47t54.5 127t-54 126.5t-146 46.5t-146 -46.5t-54 -126.5t54.5 -127t145.5 -47z" />
<glyph unicode="p" d="M201 -210h-133v753h129v-78q81 92 228 92q137 0 222 -79q86 -80 86 -206q0 -127 -86 -207q-85 -79 -222 -79q-144 0 -224 88v-284zM401 98q88 0 141.5 47.5t53.5 126.5q0 78 -53.5 125.5t-141.5 47.5q-90 0 -145 -47.5t-55 -125.5t55 -126t145 -48z" />
<glyph unicode="q" d="M571 543h130v-753h-134v282q-81 -87 -223 -87q-138 0 -223 79q-86 80 -86 207q0 126 86 206t223 80q147 0 227 -91v77zM367 445q-88 0 -141.5 -48t-53.5 -126t53.5 -126t141.5 -48q90 0 145 48t55 126t-55 126t-145 48z" />
<glyph unicode="r" horiz-adv-x="443" d="M258 400q-31 -29 -44 -64t-13 -90v-246h-133v543h129v-103q13 28 42 59q51 55 142 55q32 0 57 -5l-9 -119q-26 5 -60 5q-75 0 -111 -35z" />
<glyph unicode="s" horiz-adv-x="661" d="M333 95q160 0 160 61q0 23 -22.5 34.5t-86.5 19.5l-131 17q-105 14 -152.5 50t-47.5 103q0 84 72 130.5t202 46.5q146 0 272 -39l-29 -106q-43 14 -116 26q-63 10 -120 10q-148 0 -148 -57q0 -21 20 -31t78 -18l140 -18q105 -13 153.5 -51.5t48.5 -107.5 q0 -83 -79.5 -131t-217.5 -48q-165 0 -290 50l32 108q53 -23 124 -36t138 -13z" />
<glyph unicode="t" horiz-adv-x="479" d="M322 110h127v-110h-178q-82 0 -116.5 33t-34.5 110v292h-106v108h106v150h133v-150h197v-108h-197v-264q0 -36 14 -48.5t55 -12.5z" />
<glyph unicode="u" horiz-adv-x="723" d="M522 278v265h134v-543h-130v89q-68 -103 -213 -103q-114 0 -180 60q-40 36 -57 87.5t-17 138.5v271h133v-273q0 -107 56 -143q36 -25 97 -25q119 0 165 102q12 30 12 74z" />
<glyph unicode="v" horiz-adv-x="692" d="M692 543l-274 -543h-145l-273 543h155l194 -423l197 423h146z" />
<glyph unicode="w" horiz-adv-x="1107" d="M1103 543l-236 -543h-147l-168 407l-166 -407h-145l-237 543h154l160 -406l166 406h143l169 -408l162 408h145z" />
<glyph unicode="x" horiz-adv-x="684" d="M427 280l260 -280h-179l-171 191l-173 -191h-166l257 276l-250 267h177l163 -178l162 178h167z" />
<glyph unicode="y" horiz-adv-x="694" d="M163 -211h-123v112h128q75 0 108 81l6 9l-282 552h157l197 -420l194 420h147l-314 -621q-39 -78 -85 -105q-44 -28 -133 -28z" />
<glyph unicode="z" horiz-adv-x="658" d="M412 435h-361v108h549v-95l-370 -339h388v-109h-577v94z" />
<glyph unicode="{" horiz-adv-x="426" d="M124 8v156q0 28 -11 40.5t-37 12.5h-45v128h45q26 0 37 12.5t11 40.5v156q0 180 197 180h77v-112h-69q-72 0 -72 -84v-160q0 -42 -17 -64t-58 -33q41 -11 58 -33t17 -64v-160q0 -84 72 -84h69v-112h-77q-197 0 -197 180z" />
<glyph unicode="|" horiz-adv-x="269" d="M201 -172h-133v906h133v-906z" />
<glyph unicode="}" horiz-adv-x="426" d="M302 164v-156q0 -180 -197 -180h-77v112h69q73 0 73 84v160q0 42 16.5 64t57.5 33q-41 10 -57.5 32t-16.5 65v160q0 84 -73 84h-69v112h77q197 0 197 -180v-156q0 -28 11.5 -40.5t37.5 -12.5h45v-128h-45q-26 0 -37.5 -12.5t-11.5 -40.5z" />
<glyph unicode="~" horiz-adv-x="664" d="M443 352q30 0 45.5 25.5t20.5 85.5h111q-3 -115 -46 -178.5t-117 -63.5q-54 0 -113 40l-63 44q-41 26 -61 26q-31 0 -45.5 -25.5t-19.5 -85.5h-111q4 115 46.5 178.5t115.5 63.5q54 0 113 -41l63 -43q34 -26 61 -26z" />
<glyph unicode="&#xa1;" horiz-adv-x="259" d="M129 411q-38 0 -62 23.5t-24 60.5t24 60.5t62 23.5q39 0 63 -23.5t24 -60.5t-24.5 -60.5t-62.5 -23.5zM200 -141h-141v206l30 289h82l29 -289v-206z" />
<glyph unicode="&#xa2;" horiz-adv-x="677" d="M564 280l79 -83q-85 -96 -226 -113v-84h-94v83q-135 11 -211 85q-77 75 -77 196q0 116 79 194q78 78 209 92v84h94v-84q139 -14 222 -100l-85 -83q-60 59 -137 71v-342q87 17 147 84zM172 367q0 -66 40.5 -112t110.5 -59v342q-69 -13 -110 -59t-41 -112z" />
<glyph unicode="&#xa3;" horiz-adv-x="757" d="M720 0h-683v116q68 1 94.5 20.5t26.5 69.5v83h-103v107h103v82q0 111 76 178q77 68 200 68q132 0 202.5 -56t74.5 -164h-131q-4 50 -41.5 77.5t-103.5 27.5q-70 0 -107.5 -35t-37.5 -100v-78h293v-107h-293v-72q0 -78 -40 -102h470v-115z" />
<glyph unicode="&#xa5;" horiz-adv-x="828" d="M346 94h-241v98h241v63l-5 7h-236v98h164l-258 350h159l247 -344l247 344h154l-258 -350h163v-98h-236l-5 -7v-63h241v-98h-241v-94h-136v94z" />
<glyph unicode="&#xa7;" horiz-adv-x="678" d="M523 143q99 -44 99 -146q0 -83 -75 -134q-73 -52 -198 -52q-133 0 -213 54q-79 52 -82 145h140q3 -45 44.5 -71.5t108.5 -26.5q62 0 98 21.5t36 57.5q0 29 -22.5 46.5t-73.5 28.5l-182 41q-168 37 -168 156q0 45 32.5 80.5t86.5 48.5q-99 43 -99 143q0 84 76 136 q77 53 199 53q134 0 212 -53t80 -146h-138q-8 98 -151 98q-61 0 -98.5 -23t-37.5 -60q0 -52 90 -71l188 -42q167 -36 167 -155q0 -46 -32 -81t-87 -48zM174 282q0 -58 86 -76l101 -22q3 0 48 3q94 11 94 67t-91 75l-100 22q-12 -1 -28.5 -2.5t-18.5 -1.5q-91 -11 -91 -65z " />
<glyph unicode="&#xa8;" horiz-adv-x="515" d="M132 619q-33 0 -53.5 20t-20.5 51t20.5 51t53.5 20q32 0 52.5 -20t20.5 -51t-20.5 -51t-52.5 -20zM384 619q-33 0 -53.5 20t-20.5 51t20.5 51t53.5 20q32 0 52.5 -20t20.5 -51t-20.5 -51t-52.5 -20z" />
<glyph unicode="&#xa9;" horiz-adv-x="947" d="M473 -14q-194 0 -315 101q-120 102 -120 268q0 167 120 267q120 102 315 102t315 -102q121 -102 121 -267t-121 -267q-120 -102 -315 -102zM473 80q150 0 239 74q89 75 89 201t-89 201t-239 75q-151 0 -239 -75q-89 -75 -89 -201t89 -201q89 -74 239 -74zM474 182 q-95 0 -150.5 46.5t-55.5 126.5q0 78 57 126q58 49 150 49q110 0 173 -60l-60 -68q-45 40 -109 40q-45 0 -72.5 -23.5t-27.5 -62.5t27 -61.5t73 -22.5q73 0 113 40l59 -69q-28 -28 -75.5 -44.5t-101.5 -16.5z" />
<glyph unicode="&#xaa;" horiz-adv-x="591" d="M220 268q-90 0 -139 34t-49 97q0 73 57 106.5t180 33.5q43 0 133 -7v9q0 44 -30.5 63t-101.5 19q-81 0 -189 -27l-22 88q112 29 228 29q224 0 224 -156v-147q0 -21 10 -29.5t35 -8.5h12v-96h-50q-74 0 -96 47q-77 -55 -202 -55zM241 354q72 0 137 32q23 12 23 26v41 q-99 7 -149 7q-105 0 -105 -53t94 -53z" />
<glyph unicode="&#xab;" horiz-adv-x="729" d="M254 498h157l-209 -206l209 -205h-157l-202 205zM519 498h157l-209 -206l209 -205h-157l-202 205z" />
<glyph unicode="&#xac;" horiz-adv-x="648" d="M604 111h-119v182h-441v115h560v-297z" />
<glyph unicode="&#xad;" horiz-adv-x="553" d="M495 350v-115h-437v115h437z" />
<glyph unicode="&#xae;" horiz-adv-x="641" d="M321 232q-126 0 -205 68q-78 68 -78 178t78 178q79 68 205 68q125 0 204 -68q78 -68 78 -178t-78 -178q-79 -68 -204 -68zM321 297q95 0 150.5 48.5t55.5 132.5t-55.5 132.5t-150.5 48.5q-96 0 -151.5 -48.5t-55.5 -132.5t55.5 -132.5t151.5 -48.5zM266 380h-64v206h159 q39 0 63 -20t24 -52q0 -28 -18.5 -47t-48.5 -22l71 -65h-82l-56 58h-48v-58zM266 534v-48h83q32 0 32 24t-33 24h-82z" />
<glyph unicode="&#xaf;" horiz-adv-x="501" d="M443 734v-98h-385v98h385z" />
<glyph unicode="&#xb0;" horiz-adv-x="517" d="M259 308q-95 0 -156 58t-61 147t61 147t156 58q93 0 154 -58q62 -59 62 -147t-62 -147q-61 -58 -154 -58zM259 404q47 0 78 31t31 78t-31 78t-78 31q-48 0 -78.5 -31t-30.5 -78q0 -48 30.5 -78.5t78.5 -30.5z" />
<glyph unicode="&#xb1;" horiz-adv-x="648" d="M383 170h-118v169h-221v116h221v173h118v-173h221v-116h-221v-169zM604 0h-560v115h560v-115z" />
<glyph unicode="&#xb4;" horiz-adv-x="458" d="M58 628l174 143h168v-6l-216 -144h-126v7z" />
<glyph unicode="&#xb5;" horiz-adv-x="733" d="M202 -210h-134v753h134v-273q0 -108 54 -143q41 -25 96 -25q122 0 168 102q12 30 12 74v265h133v-543h-130v88q-67 -102 -208 -102q-85 0 -125 45v-241z" />
<glyph unicode="&#xb6;" horiz-adv-x="782" d="M507 -210h-120v800h-146q-41 0 -64 -15.5t-23 -43.5q0 -60 90 -60h78v-120h-76q-223 0 -223 180q0 84 60.5 131.5t167.5 47.5h466v-920h-120v800h-90v-800z" />
<glyph unicode="&#xb7;" horiz-adv-x="285" d="M142 269q-38 0 -63 24.5t-25 61.5t25 61.5t63 24.5t63.5 -24.5t25.5 -61.5t-25.5 -61.5t-63.5 -24.5z" />
<glyph unicode="&#xb8;" horiz-adv-x="389" d="M185 -221q-87 0 -127 9l22 63q55 -6 103 -6q55 0 55 26q0 23 -54 23q-68 0 -92 -1l-3 1l42 110h83l-21 -54q9 1 33 1q48 0 76.5 -21.5t28.5 -57.5q0 -45 -38 -69t-108 -24z" />
<glyph unicode="&#xba;" horiz-adv-x="591" d="M295 268q-115 0 -189 62q-73 61 -73 162q0 100 73 161q74 62 189 62t189 -62q73 -61 73 -161q0 -101 -73 -162q-74 -62 -189 -62zM295 363q67 0 107.5 35.5t40.5 93.5t-40.5 93t-107.5 35q-66 0 -106.5 -35t-40.5 -93t40.5 -93.5t106.5 -35.5z" />
<glyph unicode="&#xbb;" horiz-adv-x="729" d="M210 87h-158l209 205l-209 206h158l201 -206zM475 87h-158l209 205l-209 206h158l201 -206z" />
<glyph unicode="&#xbf;" horiz-adv-x="684" d="M366 563q38 0 62 -23.5t24 -60.5t-24 -60.5t-62 -23.5t-62.5 23.5t-24.5 60.5t24 60.5t63 23.5zM301 343h133v-33q0 -57 -24 -92t-82 -62l-72 -35q-44 -22 -60.5 -40.5t-16.5 -46.5q0 -43 40.5 -66t118.5 -23q83 0 131 35.5t50 97.5h132q0 -117 -83 -183t-230 -66 q-145 0 -223.5 52.5t-78.5 147.5q0 64 32.5 108t103.5 76l61 27q66 29 67 84z" />
<glyph unicode="&#xc0;" horiz-adv-x="903" d="M662 150h-426l-75 -150h-152l371 710h144l371 -710h-158zM605 264l-157 312l-155 -312h312zM403 774l-205 121v7h174l168 -121v-7h-137z" />
<glyph unicode="&#xc1;" horiz-adv-x="903" d="M662 150h-426l-75 -150h-152l371 710h144l371 -710h-158zM605 264l-157 312l-155 -312h312zM363 781l168 121h174v-7l-205 -121h-137v7z" />
<glyph unicode="&#xc2;" horiz-adv-x="903" d="M662 150h-426l-75 -150h-152l371 710h144l371 -710h-158zM605 264l-157 312l-155 -312h312zM198 774v5l190 123h128l190 -123v-5h-162l-92 61l-92 -61h-162z" />
<glyph unicode="&#xc3;" horiz-adv-x="903" d="M662 150h-426l-75 -150h-152l371 710h144l371 -710h-158zM605 264l-157 312l-155 -312h312zM367 915q31 0 72 -17l44 -17q30 -12 42 -12q28 0 35 46h85q-2 -64 -32 -101t-79 -37q-30 0 -71 17l-44 17q-29 12 -42 12q-27 0 -34 -46h-86q2 65 31.5 101.5t78.5 36.5z" />
<glyph unicode="&#xc4;" horiz-adv-x="903" d="M662 150h-426l-75 -150h-152l371 710h144l371 -710h-158zM605 264l-157 312l-155 -312h312zM326 770q-32 0 -53 20t-21 51t20.5 51t53.5 20q32 0 52.5 -20t20.5 -51t-20.5 -51t-52.5 -20zM577 770q-32 0 -53 20t-21 51t20.5 51t53.5 20t53.5 -20t20.5 -51t-21 -51 t-53 -20z" />
<glyph unicode="&#xc5;" horiz-adv-x="903" d="M662 150h-426l-75 -150h-152l371 710h144l371 -710h-158zM605 264l-157 312l-155 -312h312zM451 749q-68 0 -112 36t-44 92q0 55 44 91q43 36 112 36t112 -36q45 -36 45 -91t-45 -92q-43 -36 -112 -36zM451 821q31 0 50 15.5t19 40.5q0 24 -19.5 39.5t-49.5 15.5 t-49.5 -15.5t-19.5 -39.5q0 -25 19 -40.5t50 -15.5z" />
<glyph unicode="&#xc6;" horiz-adv-x="1376" d="M618 152h-378l-77 -152h-153l376 710h950v-117h-580v-172h482v-117h-482v-187h580v-117h-718v152zM618 592h-153l-168 -328h321v328z" />
<glyph unicode="&#xc7;" horiz-adv-x="877" d="M42 355q0 167 118 267q118 102 309 102q250 0 370 -170l-104 -70q-101 123 -266 123q-128 0 -207 -70q-78 -69 -78 -182q0 -114 77 -183q77 -68 205 -68q87 0 158.5 34.5t114.5 96.5l101 -71q-99 -159 -329 -176l-15 -38q9 1 33 1q48 0 76.5 -21.5t28.5 -57.5 q0 -45 -38 -69t-108 -24q-87 0 -127 9l22 63q56 -6 103 -6q55 0 55 26q0 23 -54 23q-68 0 -92 -1l-3 1l35 93q-177 7 -282 106q-103 99 -103 262z" />
<glyph unicode="&#xc8;" horiz-adv-x="831" d="M791 0h-718v710h718v-117h-580v-172h482v-117h-482v-187h580v-117zM391 774l-205 121v7h174l168 -121v-7h-137z" />
<glyph unicode="&#xc9;" horiz-adv-x="831" d="M791 0h-718v710h718v-117h-580v-172h482v-117h-482v-187h580v-117zM351 781l168 121h174v-7l-205 -121h-137v7z" />
<glyph unicode="&#xca;" horiz-adv-x="831" d="M791 0h-718v710h718v-117h-580v-172h482v-117h-482v-187h580v-117zM186 774v5l190 123h128l190 -123v-5h-162l-92 61l-92 -61h-162z" />
<glyph unicode="&#xcb;" horiz-adv-x="831" d="M791 0h-718v710h718v-117h-580v-172h482v-117h-482v-187h580v-117zM315 770q-32 0 -53 20t-21 51t20.5 51t53.5 20q32 0 52.5 -20t20.5 -51t-20.5 -51t-52.5 -20zM566 770q-32 0 -53 20t-21 51t20.5 51t53.5 20t53.5 -20t20.5 -51t-21 -51t-53 -20z" />
<glyph unicode="&#xcc;" horiz-adv-x="284" d="M211 710v-710h-138v710h138zM93 774l-205 121v7h174l168 -121v-7h-137z" />
<glyph unicode="&#xcd;" horiz-adv-x="284" d="M211 710v-710h-138v710h138zM53 781l168 121h174v-7l-205 -121h-137v7z" />
<glyph unicode="&#xce;" horiz-adv-x="284" d="M211 710v-710h-138v710h138zM-112 774v5l190 123h128l190 -123v-5h-162l-92 61l-92 -61h-162z" />
<glyph unicode="&#xcf;" horiz-adv-x="284" d="M211 710v-710h-138v710h138zM17 770q-32 0 -53 20t-21 51t20.5 51t53.5 20q32 0 52.5 -20t20.5 -51t-20.5 -51t-52.5 -20zM268 770q-32 0 -53 20t-21 51t20.5 51t53.5 20t53.5 -20t20.5 -51t-21 -51t-53 -20z" />
<glyph unicode="&#xd0;" horiz-adv-x="892" d="M73 309h-95v104h95v297h389q184 0 285 -94q103 -94 103 -261t-103 -261t-286 -94h-388v309zM211 309v-192h234q127 0 195 62t68 177t-67.5 176t-195.5 61h-234v-180h190v-104h-190z" />
<glyph unicode="&#xd1;" horiz-adv-x="915" d="M207 710l501 -518v518h134v-710h-134l-501 517v-517h-134v710h134zM377 915q31 0 72 -17l44 -17q30 -12 42 -12q28 0 35 46h85q-2 -64 -32 -101t-79 -37q-30 0 -71 17l-44 17q-29 12 -42 12q-27 0 -34 -46h-86q2 65 31.5 101.5t78.5 36.5z" />
<glyph unicode="&#xd2;" horiz-adv-x="943" d="M472 -14q-195 0 -313 101q-117 100 -117 268q0 167 117 268q118 101 313 101q194 0 312 -101q117 -101 117 -268q0 -168 -117 -268q-118 -101 -312 -101zM472 104q130 0 209 68q78 69 78 183q0 115 -78 182q-78 69 -209 69q-130 0 -210 -69q-78 -67 -78 -182 q0 -114 78 -183q80 -68 210 -68zM423 774l-205 121v7h174l168 -121v-7h-137z" />
<glyph unicode="&#xd3;" horiz-adv-x="943" d="M472 -14q-195 0 -313 101q-117 100 -117 268q0 167 117 268q118 101 313 101q194 0 312 -101q117 -101 117 -268q0 -168 -117 -268q-118 -101 -312 -101zM472 104q130 0 209 68q78 69 78 183q0 115 -78 182q-78 69 -209 69q-130 0 -210 -69q-78 -67 -78 -182 q0 -114 78 -183q80 -68 210 -68zM383 781l168 121h174v-7l-205 -121h-137v7z" />
<glyph unicode="&#xd4;" horiz-adv-x="943" d="M472 -14q-195 0 -313 101q-117 100 -117 268q0 167 117 268q118 101 313 101q194 0 312 -101q117 -101 117 -268q0 -168 -117 -268q-118 -101 -312 -101zM472 104q130 0 209 68q78 69 78 183q0 115 -78 182q-78 69 -209 69q-130 0 -210 -69q-78 -67 -78 -182 q0 -114 78 -183q80 -68 210 -68zM218 774v5l190 123h128l190 -123v-5h-162l-92 61l-92 -61h-162z" />
<glyph unicode="&#xd5;" horiz-adv-x="943" d="M472 -14q-195 0 -313 101q-117 100 -117 268q0 167 117 268q118 101 313 101q194 0 312 -101q117 -101 117 -268q0 -168 -117 -268q-118 -101 -312 -101zM472 104q130 0 209 68q78 69 78 183q0 115 -78 182q-78 69 -209 69q-130 0 -210 -69q-78 -67 -78 -182 q0 -114 78 -183q80 -68 210 -68zM387 915q31 0 72 -17l44 -17q30 -12 42 -12q28 0 35 46h85q-2 -64 -32 -101t-79 -37q-30 0 -71 17l-44 17q-29 12 -42 12q-27 0 -34 -46h-86q2 65 31.5 101.5t78.5 36.5z" />
<glyph unicode="&#xd6;" horiz-adv-x="943" d="M472 -14q-195 0 -313 101q-117 100 -117 268q0 167 117 268q118 101 313 101q194 0 312 -101q117 -101 117 -268q0 -168 -117 -268q-118 -101 -312 -101zM472 104q130 0 209 68q78 69 78 183q0 115 -78 182q-78 69 -209 69q-130 0 -210 -69q-78 -67 -78 -182 q0 -114 78 -183q80 -68 210 -68zM346 770q-32 0 -53 20t-21 51t20.5 51t53.5 20q32 0 52.5 -20t20.5 -51t-20.5 -51t-52.5 -20zM597 770q-32 0 -53 20t-21 51t20.5 51t53.5 20t53.5 -20t20.5 -51t-21 -51t-53 -20z" />
<glyph unicode="&#xd8;" horiz-adv-x="943" d="M42 355q0 167 117 268q118 101 313 101q122 0 217 -42l48 55h136l-95 -109q123 -100 123 -273q0 -168 -117 -268q-118 -101 -312 -101q-123 0 -219 42l-48 -55h-134l95 109q-124 101 -124 273zM472 606q-130 0 -210 -69q-78 -67 -78 -182q0 -107 69 -173l350 402 q-59 22 -131 22zM472 104q130 0 209 68q78 69 78 183q0 105 -68 173l-352 -401q58 -23 133 -23z" />
<glyph unicode="&#xd9;" horiz-adv-x="897" d="M695 710h139v-394q0 -159 -100 -244.5t-285 -85.5q-186 0 -286 85.5t-100 244.5v394h138v-382q0 -106 65 -164t183 -58q117 0 181.5 58t64.5 164v382zM400 774l-205 121v7h174l168 -121v-7h-137z" />
<glyph unicode="&#xda;" horiz-adv-x="897" d="M695 710h139v-394q0 -159 -100 -244.5t-285 -85.5q-186 0 -286 85.5t-100 244.5v394h138v-382q0 -106 65 -164t183 -58q117 0 181.5 58t64.5 164v382zM360 781l168 121h174v-7l-205 -121h-137v7z" />
<glyph unicode="&#xdb;" horiz-adv-x="897" d="M695 710h139v-394q0 -159 -100 -244.5t-285 -85.5q-186 0 -286 85.5t-100 244.5v394h138v-382q0 -106 65 -164t183 -58q117 0 181.5 58t64.5 164v382zM195 774v5l190 123h128l190 -123v-5h-162l-92 61l-92 -61h-162z" />
<glyph unicode="&#xdc;" horiz-adv-x="897" d="M695 710h139v-394q0 -159 -100 -244.5t-285 -85.5q-186 0 -286 85.5t-100 244.5v394h138v-382q0 -106 65 -164t183 -58q117 0 181.5 58t64.5 164v382zM323 770q-32 0 -53 20t-21 51t20.5 51t53.5 20q32 0 52.5 -20t20.5 -51t-20.5 -51t-52.5 -20zM574 770q-32 0 -53 20 t-21 51t20.5 51t53.5 20t53.5 -20t20.5 -51t-21 -51t-53 -20z" />
<glyph unicode="&#xdd;" horiz-adv-x="814" d="M811 710l-335 -456v-254h-139v254l-334 456h166l242 -341l245 341h155zM318 781l168 121h174v-7l-205 -121h-137v7z" />
<glyph unicode="&#xde;" horiz-adv-x="886" d="M203 127v-127h-139v710h139v-118h396q119 0 186 -63q69 -62 69 -169q0 -104 -69 -169q-67 -64 -180 -64h-402zM203 475v-230h375q61 0 97 31t36 84t-36 84t-97 31h-375z" />
<glyph unicode="&#xdf;" horiz-adv-x="789" d="M201 469v-469h-133v481q0 136 83.5 206t245.5 70q135 0 214 -56q78 -55 78 -151q0 -54 -26.5 -95.5t-71.5 -57.5q77 -15 120.5 -64.5t43.5 -123.5q0 -101 -75 -159q-76 -59 -204 -59q-75 0 -149 10l13 112q78 -8 121 -8q75 0 116 29t41 81q0 53 -45 81t-127 28h-68v116 h61q52 1 83 28t31 71q0 48 -42.5 76.5t-115.5 28.5q-194 0 -194 -175z" />
<glyph unicode="&#xe0;" d="M348 -14q-142 0 -228 78q-85 78 -85 208q0 128 86 206q86 79 227 79q143 0 224 -93v79h129v-543h-130v78q-80 -92 -223 -92zM367 98q91 0 145.5 47t54.5 127q0 79 -54.5 126t-145.5 47q-89 0 -142 -47t-53 -126t53 -126.5t142 -47.5zM346 621l-216 144v6h168l174 -143v-7 h-126z" />
<glyph unicode="&#xe1;" d="M348 -14q-142 0 -228 78q-85 78 -85 208q0 128 86 206q86 79 227 79q143 0 224 -93v79h129v-543h-130v78q-80 -92 -223 -92zM367 98q91 0 145.5 47t54.5 127q0 79 -54.5 126t-145.5 47q-89 0 -142 -47t-53 -126t53 -126.5t142 -47.5zM293 628l174 143h168v-6l-216 -144 h-126v7z" />
<glyph unicode="&#xe2;" d="M348 -14q-142 0 -228 78q-85 78 -85 208q0 128 86 206q86 79 227 79q143 0 224 -93v79h129v-543h-130v78q-80 -92 -223 -92zM367 98q91 0 145.5 47t54.5 127q0 79 -54.5 126t-145.5 47q-89 0 -142 -47t-53 -126t53 -126.5t142 -47.5zM132 621v4l195 146h114l195 -146v-4 h-154l-98 79l-98 -79h-154z" />
<glyph unicode="&#xe3;" d="M348 -14q-142 0 -228 78q-85 78 -85 208q0 128 86 206q86 79 227 79q143 0 224 -93v79h129v-543h-130v78q-80 -92 -223 -92zM367 98q91 0 145.5 47t54.5 127q0 79 -54.5 126t-145.5 47q-89 0 -142 -47t-53 -126t53 -126.5t142 -47.5zM273 619h-83q4 76 33.5 118.5 t77.5 42.5q37 0 72 -21l44 -25q31 -16 41 -16q30 0 37 62h83q-4 -76 -33.5 -118.5t-78.5 -42.5q-32 0 -70 22l-45 24q-31 16 -41 16q-30 0 -37 -62z" />
<glyph unicode="&#xe4;" d="M348 -14q-142 0 -228 78q-85 78 -85 208q0 128 86 206q86 79 227 79q143 0 224 -93v79h129v-543h-130v78q-80 -92 -223 -92zM367 98q91 0 145.5 47t54.5 127q0 79 -54.5 126t-145.5 47q-89 0 -142 -47t-53 -126t53 -126.5t142 -47.5zM258 619q-33 0 -53.5 20t-20.5 51 t20.5 51t53.5 20q32 0 52.5 -20t20.5 -51t-20.5 -51t-52.5 -20zM510 619q-33 0 -53.5 20t-20.5 51t20.5 51t53.5 20q32 0 52.5 -20t20.5 -51t-20.5 -51t-52.5 -20z" />
<glyph unicode="&#xe5;" d="M348 -14q-142 0 -228 78q-85 78 -85 208q0 128 86 206q86 79 227 79q143 0 224 -93v79h129v-543h-130v78q-80 -92 -223 -92zM367 98q91 0 145.5 47t54.5 127q0 79 -54.5 126t-145.5 47q-89 0 -142 -47t-53 -126t53 -126.5t142 -47.5zM384 606q-68 0 -111.5 38.5 t-43.5 98.5t43.5 98.5t111.5 38.5t111.5 -38.5t43.5 -98.5t-43.5 -98.5t-111.5 -38.5zM384 683q30 0 48.5 16.5t18.5 43.5t-18.5 43.5t-48.5 16.5t-48.5 -16.5t-18.5 -43.5t18.5 -43.5t48.5 -16.5z" />
<glyph unicode="&#xe6;" horiz-adv-x="1258" d="M348 -14q-142 0 -228 78q-85 78 -85 208q0 128 86 206q86 79 227 79q132 0 213 -81v67h126v-65q77 79 218 79t229 -71q87 -71 87 -182q0 -25 -3 -66h-518q9 -66 65.5 -103.5t148.5 -37.5q136 0 217 75l73 -82q-43 -49 -121 -76.5t-173 -27.5q-150 0 -223 79v-65h-127v66 q-80 -80 -212 -80zM897 453q-77 0 -129 -33t-65 -89h379q-6 55 -56.5 88.5t-128.5 33.5zM367 98q91 0 145.5 47t54.5 127q0 79 -54.5 126t-145.5 47q-89 0 -142 -47t-53 -126t53 -126.5t142 -47.5z" />
<glyph unicode="&#xe7;" horiz-adv-x="664" d="M390 -221q-87 0 -127 9l22 63q55 -6 103 -6q55 0 55 26q0 23 -54 23q-68 0 -92 -1l-3 1l36 93q-136 9 -216 84q-79 76 -79 198q0 128 94 207q95 81 239 81q174 0 271 -102l-85 -83q-76 75 -184 75q-88 0 -143 -49t-55 -126q0 -78 55 -127q55 -48 144 -48q114 0 193 88 l79 -83q-88 -99 -230 -113l-15 -39q9 1 33 1q48 0 76.5 -21.5t28.5 -57.5q0 -45 -38 -69t-108 -24z" />
<glyph unicode="&#xe8;" horiz-adv-x="731" d="M375 -14q-159 0 -250 76q-90 76 -90 209q0 127 93 206q95 80 242 80q144 0 233 -71q90 -70 90 -182q0 -51 -3 -66h-517q9 -67 65.5 -104t148.5 -37q63 0 120.5 20t95.5 55l73 -82q-42 -48 -122.5 -76t-178.5 -28zM371 453q-78 0 -130.5 -33t-65.5 -89h380q-6 55 -56 88.5 t-128 33.5zM329 621l-216 144v6h168l174 -143v-7h-126z" />
<glyph unicode="&#xe9;" horiz-adv-x="731" d="M375 -14q-159 0 -250 76q-90 76 -90 209q0 127 93 206q95 80 242 80q144 0 233 -71q90 -70 90 -182q0 -51 -3 -66h-517q9 -67 65.5 -104t148.5 -37q63 0 120.5 20t95.5 55l73 -82q-42 -48 -122.5 -76t-178.5 -28zM371 453q-78 0 -130.5 -33t-65.5 -89h380q-6 55 -56 88.5 t-128 33.5zM276 628l174 143h168v-6l-216 -144h-126v7z" />
<glyph unicode="&#xea;" horiz-adv-x="731" d="M375 -14q-159 0 -250 76q-90 76 -90 209q0 127 93 206q95 80 242 80q144 0 233 -71q90 -70 90 -182q0 -51 -3 -66h-517q9 -67 65.5 -104t148.5 -37q63 0 120.5 20t95.5 55l73 -82q-42 -48 -122.5 -76t-178.5 -28zM371 453q-78 0 -130.5 -33t-65.5 -89h380q-6 55 -56 88.5 t-128 33.5zM115 621v4l195 146h114l195 -146v-4h-154l-98 79l-98 -79h-154z" />
<glyph unicode="&#xeb;" horiz-adv-x="731" d="M375 -14q-159 0 -250 76q-90 76 -90 209q0 127 93 206q95 80 242 80q144 0 233 -71q90 -70 90 -182q0 -51 -3 -66h-517q9 -67 65.5 -104t148.5 -37q63 0 120.5 20t95.5 55l73 -82q-42 -48 -122.5 -76t-178.5 -28zM371 453q-78 0 -130.5 -33t-65.5 -89h380q-6 55 -56 88.5 t-128 33.5zM241 619q-33 0 -53.5 20t-20.5 51t20.5 51t53.5 20q32 0 52.5 -20t20.5 -51t-20.5 -51t-52.5 -20zM493 619q-33 0 -53.5 20t-20.5 51t20.5 51t53.5 20q32 0 52.5 -20t20.5 -51t-20.5 -51t-52.5 -20z" />
<glyph unicode="&#xec;" horiz-adv-x="268" d="M200 0h-132v543h132v-543zM97 621l-146 144v6h147l112 -143v-7h-113z" />
<glyph unicode="&#xed;" horiz-adv-x="268" d="M200 0h-132v543h132v-543zM51 628l112 143h147v-6l-146 -144h-113v7z" />
<glyph unicode="&#xee;" horiz-adv-x="268" d="M200 0h-132v543h132v-543zM-50 621v4l120 146h127l120 -146v-4h-124l-59 85l-60 -85h-124z" />
<glyph unicode="&#xef;" horiz-adv-x="268" d="M200 0h-132v543h132v-543zM42 619q-31 0 -51.5 20.5t-20.5 50.5t20.5 50.5t51.5 20.5t51.5 -20.5t20.5 -50.5t-20.5 -50.5t-51.5 -20.5zM225 619q-32 0 -52 20t-20 51t20 51t52 20q31 0 51.5 -20.5t20.5 -50.5t-20.5 -50.5t-51.5 -20.5z" />
<glyph unicode="&#xf0;" horiz-adv-x="743" d="M371 -14q-154 0 -245 70t-91 187t92 185t250 68q21 0 54 -5l-88 95l-153 -58l-36 74l130 49l-55 60l120 46l54 -61l139 53l36 -73l-118 -45l149 -168q53 -61 75 -110t22 -110q0 -117 -91 -187t-244 -70zM371 87q90 0 144.5 42.5t54.5 113.5q0 70 -54.5 112.5t-144.5 42.5 t-145 -42.5t-55 -112.5q0 -71 54.5 -113.5t145.5 -42.5z" />
<glyph unicode="&#xf1;" horiz-adv-x="732" d="M201 0h-133v543h129v-91q63 105 220 105q113 0 181 -60q40 -35 57.5 -87.5t17.5 -138.5v-271h-133v273q0 104 -54 139q-41 29 -102 29q-124 0 -170 -102q-13 -31 -13 -74v-265zM257 619h-83q4 76 33.5 118.5t77.5 42.5q37 0 72 -21l44 -25q31 -16 41 -16q30 0 37 62h83 q-4 -76 -33.5 -118.5t-78.5 -42.5q-32 0 -70 22l-45 24q-31 16 -41 16q-30 0 -37 -62z" />
<glyph unicode="&#xf2;" horiz-adv-x="743" d="M372 -14q-154 0 -246 78q-91 78 -91 208q0 131 91 207q92 78 246 78t245 -78q92 -77 92 -207t-92 -208q-91 -78 -245 -78zM372 98q91 0 145.5 47t54.5 127t-54 126.5t-146 46.5t-146 -46.5t-54 -126.5t54.5 -127t145.5 -47zM334 621l-216 144v6h168l174 -143v-7h-126z " />
<glyph unicode="&#xf3;" horiz-adv-x="743" d="M372 -14q-154 0 -246 78q-91 78 -91 208q0 131 91 207q92 78 246 78t245 -78q92 -77 92 -207t-92 -208q-91 -78 -245 -78zM372 98q91 0 145.5 47t54.5 127t-54 126.5t-146 46.5t-146 -46.5t-54 -126.5t54.5 -127t145.5 -47zM281 628l174 143h168v-6l-216 -144h-126v7z " />
<glyph unicode="&#xf4;" horiz-adv-x="743" d="M372 -14q-154 0 -246 78q-91 78 -91 208q0 131 91 207q92 78 246 78t245 -78q92 -77 92 -207t-92 -208q-91 -78 -245 -78zM372 98q91 0 145.5 47t54.5 127t-54 126.5t-146 46.5t-146 -46.5t-54 -126.5t54.5 -127t145.5 -47zM120 621v4l195 146h114l195 -146v-4h-154 l-98 79l-98 -79h-154z" />
<glyph unicode="&#xf5;" horiz-adv-x="743" d="M372 -14q-154 0 -246 78q-91 78 -91 208q0 131 91 207q92 78 246 78t245 -78q92 -77 92 -207t-92 -208q-91 -78 -245 -78zM372 98q91 0 145.5 47t54.5 127t-54 126.5t-146 46.5t-146 -46.5t-54 -126.5t54.5 -127t145.5 -47zM261 619h-83q4 76 33.5 118.5t77.5 42.5 q37 0 72 -21l44 -25q31 -16 41 -16q30 0 37 62h83q-4 -76 -33.5 -118.5t-78.5 -42.5q-32 0 -70 22l-45 24q-31 16 -41 16q-30 0 -37 -62z" />
<glyph unicode="&#xf6;" horiz-adv-x="743" d="M372 -14q-154 0 -246 78q-91 78 -91 208q0 131 91 207q92 78 246 78t245 -78q92 -77 92 -207t-92 -208q-91 -78 -245 -78zM372 98q91 0 145.5 47t54.5 127t-54 126.5t-146 46.5t-146 -46.5t-54 -126.5t54.5 -127t145.5 -47zM246 619q-33 0 -53.5 20t-20.5 51t20.5 51 t53.5 20q32 0 52.5 -20t20.5 -51t-20.5 -51t-52.5 -20zM498 619q-33 0 -53.5 20t-20.5 51t20.5 51t53.5 20q32 0 52.5 -20t20.5 -51t-20.5 -51t-52.5 -20z" />
<glyph unicode="&#xf7;" horiz-adv-x="648" d="M604 293h-560v115h560v-115zM324 37q-38 0 -63 24.5t-25 61.5t25 61.5t63 24.5t63.5 -24.5t25.5 -61.5t-25.5 -61.5t-63.5 -24.5zM324 492q-38 0 -63 24.5t-25 61.5t25 61.5t63 24.5t63.5 -24.5t25.5 -61.5t-25.5 -61.5t-63.5 -24.5z" />
<glyph unicode="&#xf8;" horiz-adv-x="743" d="M203 17l-29 -31h-125l74 81q-88 80 -88 205q0 131 91 207q92 78 246 78q93 0 169 -31l28 31h125l-73 -80q88 -80 88 -205q0 -130 -92 -208q-91 -78 -245 -78q-93 0 -169 31zM372 445q-92 0 -146 -46.5t-54 -126.5q0 -65 37 -110l247 271q-38 12 -84 12zM372 98 q91 0 145.5 47t54.5 127q0 66 -38 110l-246 -271q35 -13 84 -13z" />
<glyph unicode="&#xf9;" horiz-adv-x="723" d="M522 278v265h134v-543h-130v89q-68 -103 -213 -103q-114 0 -180 60q-40 36 -57 87.5t-17 138.5v271h133v-273q0 -107 56 -143q36 -25 97 -25q119 0 165 102q12 30 12 74zM327 621l-216 144v6h168l174 -143v-7h-126z" />
<glyph unicode="&#xfa;" horiz-adv-x="723" d="M522 278v265h134v-543h-130v89q-68 -103 -213 -103q-114 0 -180 60q-40 36 -57 87.5t-17 138.5v271h133v-273q0 -107 56 -143q36 -25 97 -25q119 0 165 102q12 30 12 74zM274 628l174 143h168v-6l-216 -144h-126v7z" />
<glyph unicode="&#xfb;" horiz-adv-x="723" d="M522 278v265h134v-543h-130v89q-68 -103 -213 -103q-114 0 -180 60q-40 36 -57 87.5t-17 138.5v271h133v-273q0 -107 56 -143q36 -25 97 -25q119 0 165 102q12 30 12 74zM113 621v4l195 146h114l195 -146v-4h-154l-98 79l-98 -79h-154z" />
<glyph unicode="&#xfc;" horiz-adv-x="723" d="M522 278v265h134v-543h-130v89q-68 -103 -213 -103q-114 0 -180 60q-40 36 -57 87.5t-17 138.5v271h133v-273q0 -107 56 -143q36 -25 97 -25q119 0 165 102q12 30 12 74zM239 619q-33 0 -53.5 20t-20.5 51t20.5 51t53.5 20q32 0 52.5 -20t20.5 -51t-20.5 -51t-52.5 -20z M491 619q-33 0 -53.5 20t-20.5 51t20.5 51t53.5 20q32 0 52.5 -20t20.5 -51t-20.5 -51t-52.5 -20z" />
<glyph unicode="&#xfd;" horiz-adv-x="694" d="M163 -211h-123v112h128q75 0 108 81l6 9l-282 552h157l197 -420l194 420h147l-314 -621q-39 -78 -85 -105q-44 -28 -133 -28zM251 628l174 143h168v-6l-216 -144h-126v7z" />
<glyph unicode="&#xfe;" d="M201 -210h-133v958h133v-279q80 88 224 88q137 0 222 -79q86 -80 86 -206q0 -127 -86 -207q-85 -79 -222 -79q-144 0 -224 88v-284zM401 98q88 0 141.5 47.5t53.5 126.5q0 78 -53.5 125.5t-141.5 47.5q-90 0 -145 -47.5t-55 -125.5t55 -126t145 -48z" />
<glyph unicode="&#xff;" horiz-adv-x="694" d="M163 -211h-123v112h128q75 0 108 81l6 9l-282 552h157l197 -420l194 420h147l-314 -621q-39 -78 -85 -105q-44 -28 -133 -28zM216 619q-33 0 -53.5 20t-20.5 51t20.5 51t53.5 20q32 0 52.5 -20t20.5 -51t-20.5 -51t-52.5 -20zM468 619q-33 0 -53.5 20t-20.5 51t20.5 51 t53.5 20q32 0 52.5 -20t20.5 -51t-20.5 -51t-52.5 -20z" />
<glyph unicode="&#x131;" horiz-adv-x="268" d="M200 0h-132v543h132v-543z" />
<glyph unicode="&#x152;" horiz-adv-x="1516" d="M472 -14q-195 0 -313 101q-117 100 -117 268q0 167 117 268q118 101 313 101q177 0 287 -92v78h717v-117h-579v-172h481v-117h-481v-187h579v-117h-717v78q-110 -92 -287 -92zM472 104q130 0 209 68q78 69 78 183q0 115 -78 182q-78 69 -209 69q-130 0 -210 -69 q-78 -67 -78 -182q0 -114 78 -183q80 -68 210 -68z" />
<glyph unicode="&#x153;" horiz-adv-x="1264" d="M372 -14q-154 0 -246 78q-91 78 -91 208q0 131 91 207q92 78 246 78q179 0 270 -109q91 109 261 109q144 0 233 -71q90 -70 90 -182q0 -28 -2 -66h-518q9 -66 65.5 -103.5t148.5 -37.5q135 0 216 75l74 -82q-43 -49 -123 -76.5t-179 -27.5q-186 0 -273 110 q-90 -110 -263 -110zM905 453q-78 0 -130.5 -33t-65.5 -89h379q-6 55 -56 88.5t-127 33.5zM372 97q91 0 145.5 47.5t54.5 127.5t-54.5 127.5t-145.5 47.5t-146 -47.5t-55 -127.5t54.5 -127.5t146.5 -47.5z" />
<glyph unicode="&#x178;" horiz-adv-x="814" d="M811 710l-335 -456v-254h-139v254l-334 456h166l242 -341l245 341h155zM281 770q-32 0 -53 20t-21 51t20.5 51t53.5 20q32 0 52.5 -20t20.5 -51t-20.5 -51t-52.5 -20zM532 770q-32 0 -53 20t-21 51t20.5 51t53.5 20t53.5 -20t20.5 -51t-21 -51t-53 -20z" />
<glyph unicode="&#x192;" horiz-adv-x="508" d="M87 -210h-64v110h50q39 0 57 16t20 53l18 396h-134v110h139l3 69q4 85 54.5 130t142.5 45h80v-110h-67q-38 0 -55.5 -16.5t-19.5 -53.5l-3 -64h161v-110h-166l-18 -405q-4 -83 -54.5 -126.5t-143.5 -43.5z" />
<glyph unicode="&#x2c6;" horiz-adv-x="620" d="M58 621v4l195 146h114l195 -146v-4h-154l-98 79l-98 -79h-154z" />
<glyph unicode="&#x2c7;" horiz-adv-x="620" d="M562 766l-195 -146h-114l-195 146v4h154l98 -79l98 79h154v-4z" />
<glyph unicode="&#x2d8;" horiz-adv-x="509" d="M255 613q-85 0 -138.5 43.5t-58.5 117.5h97q3 -34 30.5 -55t69.5 -21q41 0 68 21t30 55h98q-6 -74 -58.5 -117.5t-137.5 -43.5z" />
<glyph unicode="&#x2d9;" horiz-adv-x="267" d="M134 619q-34 0 -55 20t-21 53q0 32 21 52.5t55 20.5q33 0 54 -20.5t21 -52.5t-20.5 -52.5t-54.5 -20.5z" />
<glyph unicode="&#x2da;" horiz-adv-x="426" d="M213 606q-68 0 -111.5 38.5t-43.5 98.5t43.5 98.5t111.5 38.5t111.5 -38.5t43.5 -98.5t-43.5 -98.5t-111.5 -38.5zM213 683q30 0 48.5 16.5t18.5 43.5t-18.5 43.5t-48.5 16.5t-48.5 -16.5t-18.5 -43.5t18.5 -43.5t48.5 -16.5z" />
<glyph unicode="&#x2db;" horiz-adv-x="361" d="M270 -136h34v-82q-48 -3 -62 -3q-95 0 -139.5 23.5t-44.5 73.5q0 31 34 64.5t95 63.5h107v-4q-73 -43 -97 -63q-21 -19 -21 -36q0 -37 94 -37z" />
<glyph unicode="&#x2dc;" horiz-adv-x="504" d="M141 619h-83q4 76 33.5 118.5t77.5 42.5q37 0 72 -21l44 -25q31 -16 41 -16q30 0 37 62h83q-4 -76 -33.5 -118.5t-78.5 -42.5q-32 0 -70 22l-45 24q-31 16 -41 16q-30 0 -37 -62z" />
<glyph unicode="&#x2dd;" horiz-adv-x="576" d="M58 621v4l119 146h141v-4l-159 -146h-101zM258 621v4l119 146h141v-4l-159 -146h-101z" />
<glyph unicode="&#x3a9;" horiz-adv-x="901" d="M396 0h-355v109h175q-81 40 -125.5 111.5t-44.5 161.5q0 152 112 246q113 96 293 96t292 -96q112 -94 112 -246q0 -90 -44.5 -161.5t-125.5 -111.5h176v-109h-355v109v4q96 32 151.5 101.5t55.5 159.5q0 101 -74 166q-73 66 -188 66t-189 -66q-73 -64 -73 -166 q0 -91 55 -160t152 -101v-4v-109z" />
<glyph unicode="&#x3c0;" horiz-adv-x="801" d="M279 0h-133v431h-110v112h729v-112h-109v-431h-134v431h-243v-431z" />
<glyph unicode="&#x2000;" horiz-adv-x="502" />
<glyph unicode="&#x2001;" horiz-adv-x="1004" />
<glyph unicode="&#x2002;" horiz-adv-x="502" />
<glyph unicode="&#x2003;" horiz-adv-x="1004" />
<glyph unicode="&#x2004;" horiz-adv-x="334" />
<glyph unicode="&#x2005;" horiz-adv-x="251" />
<glyph unicode="&#x2006;" horiz-adv-x="167" />
<glyph unicode="&#x2007;" horiz-adv-x="167" />
<glyph unicode="&#x2008;" horiz-adv-x="125" />
<glyph unicode="&#x2009;" horiz-adv-x="200" />
<glyph unicode="&#x200a;" horiz-adv-x="55" />
<glyph unicode="&#x2010;" horiz-adv-x="553" d="M495 350v-115h-437v115h437z" />
<glyph unicode="&#x2011;" horiz-adv-x="553" d="M495 350v-115h-437v115h437z" />
<glyph unicode="&#x2012;" horiz-adv-x="553" d="M495 350v-115h-437v115h437z" />
<glyph unicode="&#x2013;" horiz-adv-x="638" d="M580 350v-115h-522v115h522z" />
<glyph unicode="&#x2014;" horiz-adv-x="790" d="M732 350v-115h-674v115h674z" />
<glyph unicode="&#x2018;" horiz-adv-x="232" d="M52 487v236h128v-311z" />
<glyph unicode="&#x2019;" horiz-adv-x="232" d="M180 487l-128 -75v311h128v-236z" />
<glyph unicode="&#x201a;" horiz-adv-x="232" d="M180 -92l-128 -75v311h128v-236z" />
<glyph unicode="&#x201c;" horiz-adv-x="443" d="M52 487v236h128v-311zM263 487v236h128v-311z" />
<glyph unicode="&#x201d;" horiz-adv-x="437" d="M180 487l-128 -75v311h128v-236zM385 487l-128 -75v311h128v-236z" />
<glyph unicode="&#x201e;" horiz-adv-x="443" d="M180 -92l-128 -75v311h128v-236zM391 -92l-128 -75v311h128v-236z" />
<glyph unicode="&#x2020;" horiz-adv-x="711" d="M421 -210h-132v576h-249v115h249v229h132v-229h250v-115h-250v-576z" />
<glyph unicode="&#x2021;" horiz-adv-x="711" d="M421 134h250v-115h-250v-229h-132v229h-249v115h249v232h-249v115h249v229h132v-229h250v-115h-250v-232z" />
<glyph unicode="&#x2022;" horiz-adv-x="478" d="M239 169q-79 0 -132 53q-52 52 -52 133t52 133q53 53 132 53q78 0 131 -53t53 -133t-53 -133t-131 -53z" />
<glyph unicode="&#x2026;" horiz-adv-x="846" d="M140 -11q-38 0 -63 24.5t-25 61.5t25 61.5t63 24.5t63.5 -24.5t25.5 -61.5t-25.5 -61.5t-63.5 -24.5zM423 -11q-38 0 -63 24.5t-25 61.5t25 61.5t63 24.5t63.5 -24.5t25.5 -61.5t-25.5 -61.5t-63.5 -24.5zM705 -11q-38 0 -63 24.5t-25 61.5t25 61.5t63 24.5t63.5 -24.5 t25.5 -61.5t-25.5 -61.5t-63.5 -24.5z" />
<glyph unicode="&#x202f;" horiz-adv-x="200" />
<glyph unicode="&#x2030;" horiz-adv-x="1409" d="M225 343q-87 0 -144 54t-57 135q0 82 57 136t144 54q88 0 143 -55q57 -54 57 -135t-57 -135q-56 -54 -143 -54zM284 0h-133l529 710h133zM225 438q41 0 66.5 26.5t25.5 67.5q0 42 -25.5 69t-66.5 27t-67 -27t-26 -69q0 -41 26 -67.5t67 -26.5zM1385 178q0 -81 -57 -135 t-144 -54t-144 54q-56 54 -56 135t56 135q57 54 144 54t144 -54t57 -135zM740 -11q-87 0 -144 54t-57 135t57 135t144 54q88 0 143 -54q57 -54 57 -135t-57 -135q-55 -54 -143 -54zM1092 178q0 -42 25.5 -68.5t66.5 -26.5t67 26.5t26 68.5t-26 68.5t-67 26.5t-66.5 -26.5 t-25.5 -68.5zM740 83q41 0 66.5 26.5t25.5 68.5t-25.5 68.5t-66.5 26.5t-67 -26.5t-26 -68.5t26 -68.5t67 -26.5z" />
<glyph unicode="&#x2039;" horiz-adv-x="463" d="M254 498h157l-209 -206l209 -205h-157l-202 205z" />
<glyph unicode="&#x203a;" horiz-adv-x="463" d="M210 87h-158l209 205l-209 206h158l201 -206z" />
<glyph unicode="&#x2044;" horiz-adv-x="428" d="M-16 -104h-119l580 838h119z" />
<glyph unicode="&#x205f;" horiz-adv-x="251" />
<glyph unicode="&#x20ac;" horiz-adv-x="903" d="M128 232h-115v92h99q-1 7 -1 31q0 4 0.5 9t1 13.5t0.5 15.5h-99v92h118q40 112 144 175q104 64 251 64q109 0 198 -38t141 -107l-90 -77q-94 106 -255 106q-86 0 -148.5 -32t-93.5 -91h305v-92h-332q0 -7 -0.5 -15.5t-1 -13.5t-0.5 -9q0 -24 1 -31h333v-92h-308 q61 -128 248 -128q169 0 258 105l86 -74q-109 -149 -345 -149q-153 0 -256 64t-139 182z" />
<glyph unicode="&#x2122;" horiz-adv-x="1167" d="M644 280h-97v430h132l145 -294l146 294h132v-430h-98v301l-132 -275h-96l-132 277v-303zM314 280h-104v338h-179v92h463v-92h-180v-338z" />
<glyph unicode="&#x2202;" horiz-adv-x="701" d="M321 -14q-135 0 -212.5 61t-77.5 167q0 100 78 158q79 60 212 60q100 0 208 -38q-10 102 -69 151t-173 49q-72 0 -171 -28l-31 108q108 36 211 36q177 0 270.5 -95.5t93.5 -276.5q0 -168 -89 -260t-250 -92zM339 324q-82 0 -128.5 -29t-46.5 -81t42.5 -82.5t114.5 -30.5 q97 0 150.5 47t57.5 137q-100 39 -190 39z" />
<glyph unicode="&#x2206;" horiz-adv-x="784" d="M766 0h-748v110l297 600h154l297 -599v-111zM625 117l-233 485l-234 -485h467z" />
<glyph unicode="&#x220f;" horiz-adv-x="747" d="M205 0h-134v710h604v-710h-134v594h-336v-594z" />
<glyph unicode="&#x2211;" horiz-adv-x="653" d="M629 -210h-605v135l357 335l-343 312v138h581v-118h-419l332 -291v-68l-353 -325h450v-118z" />
<glyph unicode="&#x221a;" horiz-adv-x="705" d="M695 596h-92l-237 -596h-144l-212 502h150l137 -380l219 592h179v-118z" />
<glyph unicode="&#x221e;" horiz-adv-x="847" d="M813 338q0 -92 -58 -151q-57 -60 -147 -60q-125 0 -185 110q-62 -110 -177 -110q-94 0 -153 59q-58 59 -58 152q0 94 57 152q59 60 152 60q60 0 108.5 -29.5t76.5 -84.5q61 114 176 114q91 0 150 -60q58 -59 58 -152zM148 338q0 -44 28.5 -73.5t72.5 -29.5q39 0 67 24.5 t52 79.5q-24 56 -51 79.5t-68 23.5q-44 0 -72.5 -29.5t-28.5 -74.5zM481 336q24 -55 51 -78t67 -23q44 0 72.5 29t28.5 74t-28 74.5t-73 29.5q-38 0 -66 -25t-52 -81z" />
<glyph unicode="&#x222b;" horiz-adv-x="517" d="M53 -109q84 0 100 97l97 584q26 162 197 162q40 0 63 -3l-6 -114q-15 1 -37 1q-45 0 -68 -21t-31 -68l-97 -590q-26 -163 -198 -163q-43 0 -66 3l5 114q30 -2 41 -2z" />
<glyph unicode="&#x2248;" horiz-adv-x="648" d="M204 552q46 0 108 -22l50 -18q42 -14 68 -14q28 0 43 13t24 43h107q-3 -83 -45.5 -129.5t-114.5 -46.5q-44 0 -107 23l-50 17q-37 14 -69 14q-28 0 -43 -13t-24 -43h-107q3 83 45 129t115 47zM204 319q46 0 108 -22l50 -18q46 -14 68 -14q28 0 43 13t24 43h107 q-3 -83 -45.5 -129t-114.5 -46q-48 0 -107 22l-50 18q-41 13 -69 13t-43 -13t-24 -43h-107q3 83 45.5 129.5t114.5 46.5z" />
<glyph unicode="&#x2260;" horiz-adv-x="648" d="M195 174h-151v117h201l54 122h-255v118h306l58 133h113l-58 -133h141v-118h-192l-54 -122h246v-117h-296l-68 -155h-113z" />
<glyph unicode="&#x2264;" horiz-adv-x="648" d="M604 293v-131l-560 159v136l560 159v-129l-403 -97zM604 0h-560v115h560v-115z" />
<glyph unicode="&#x2265;" horiz-adv-x="648" d="M44 616l560 -159v-136l-560 -159v131l403 97l-403 97v129zM44 0v115h560v-115h-560z" />
<glyph unicode="&#x25ca;" horiz-adv-x="710" d="M426 -111h-142l-264 410l264 411h142l264 -411zM166 299l189 -299l188 299l-188 299z" />
<glyph unicode="&#x25fc;" horiz-adv-x="545" d="M0 545h545v-545h-545v545z" />
<glyph unicode="&#xfb01;" horiz-adv-x="698" d="M407 748v-107h-97q-34 0 -48.5 -10.5t-14.5 -35.5v-52h160v-108h-160v-435h-133v435h-95v108h95v58q0 147 189 147h104zM564 615q-36 0 -59 22.5t-23 56.5q0 33 23 55.5t59 22.5t59 -22t23 -56t-23 -56.5t-59 -22.5zM631 0h-133v543h133v-543z" />
<glyph unicode="&#xfb02;" horiz-adv-x="736" d="M407 748v-107h-97q-34 0 -48.5 -10.5t-14.5 -35.5v-52h160v-108h-160v-435h-133v435h-95v108h95v58q0 147 189 147h104zM685 110h37v-110h-80q-80 0 -113 29t-33 101v618h134v-593q0 -27 12 -36t43 -9z" />
</font>
</defs>
</svg>
