<svg
        xmlns="http://www.w3.org/2000/svg"
        xmlns:xlink="http://www.w3.org/1999/xlink"
        width="108px" height="110px">
    <path fill-rule="evenodd"  fill="rgb(255, 255, 255)"
          d="M10.961,109.000 L9.754,105.882 L4.170,105.882 L2.962,109.000 L-0.000,109.000 L5.660,95.000 L8.339,95.000 L14.000,109.000 L10.961,109.000 ZM6.962,98.674 L5.208,103.181 L8.716,103.181 L6.962,98.674 Z"/>
    <path fill-rule="evenodd"  fill-opacity="0" fill="rgb(0, 0, 0)"
          d="M15.936,95.251 L28.525,95.251 L28.525,109.317 L15.936,109.317 L15.936,95.251 Z"/>
    <path fill-rule="evenodd"  fill="rgb(255, 255, 255)"
          d="M15.936,102.283 C15.936,98.417 18.859,95.251 23.049,95.251 C25.622,95.251 27.064,96.222 28.331,97.466 L26.538,99.524 C25.485,98.573 24.589,98.009 23.030,98.009 C20.730,98.009 19.073,99.912 19.073,102.283 C19.073,104.615 20.691,106.558 23.030,106.558 C24.589,106.558 25.544,105.936 26.615,104.964 L28.525,107.005 C27.123,108.500 25.563,109.317 22.932,109.317 C18.918,109.317 15.936,106.227 15.936,102.283 "/>
    <path fill-rule="evenodd"  fill="rgb(255, 255, 255)"
          d="M41.450,109.083 L40.202,106.033 L34.435,106.033 L33.187,109.083 L30.127,109.083 L35.974,95.386 L38.742,95.386 L44.588,109.083 L41.450,109.083 ZM37.318,98.981 L35.506,103.391 L39.131,103.391 L37.318,98.981 Z"/>
    <path fill-rule="evenodd"  fill="rgb(255, 255, 255)"
          d="M53.084,109.083 L47.763,109.083 L47.763,95.483 L53.084,95.483 C57.371,95.483 60.333,98.417 60.333,102.283 C60.333,106.111 57.371,109.083 53.084,109.083 ZM53.084,98.184 L50.764,98.184 L50.764,106.383 L53.084,106.383 C55.539,106.383 57.195,104.731 57.195,102.283 C57.195,99.874 55.539,98.184 53.084,98.184 Z"/>
    <path fill-rule="evenodd"  fill="rgb(255, 255, 255)"
          d="M63.627,95.483 L73.917,95.483 L73.917,98.145 L66.609,98.145 L66.609,100.904 L73.040,100.904 L73.040,103.565 L66.609,103.565 L66.609,106.421 L74.014,106.421 L74.014,109.083 L63.627,109.083 L63.627,95.483 Z"/>
    <path fill-rule="evenodd"  fill="rgb(255, 255, 255)"
          d="M77.535,95.483 L80.771,95.483 L84.356,101.234 L87.943,95.483 L91.178,95.483 L91.178,109.083 L88.196,109.083 L88.196,100.204 L84.356,106.013 L84.279,106.013 L80.478,100.263 L80.478,109.083 L77.535,109.083 L77.535,95.483 Z"/>
    <path fill-rule="evenodd"  fill-opacity="0" fill="rgb(0, 0, 0)"
          d="M94.323,95.483 L107.809,95.483 L107.809,109.083 L94.323,109.083 L94.323,95.483 Z"/>
    <path fill-rule="evenodd"  fill="rgb(255, 255, 255)"
          d="M99.566,103.721 L94.323,95.483 L97.831,95.483 L101.085,100.943 L104.399,95.483 L107.809,95.483 L102.567,103.663 L102.567,109.083 L99.566,109.083 L99.566,103.721 Z"/>
    <path fill-rule="evenodd"  fill="rgb(255, 255, 255)"
          d="M1.832,73.536 L4.834,73.536 L4.834,78.917 L10.368,78.917 L10.368,73.536 L13.369,73.536 L13.369,87.136 L10.368,87.136 L10.368,81.676 L4.834,81.676 L4.834,87.136 L1.832,87.136 L1.832,73.536 Z"/>
    <path fill-rule="evenodd"  fill="rgb(255, 255, 255)"
          d="M27.490,87.136 L26.242,84.086 L20.474,84.086 L19.227,87.136 L16.168,87.136 L22.014,73.438 L24.781,73.438 L30.627,87.136 L27.490,87.136 ZM23.359,77.034 L21.546,81.443 L25.171,81.443 L23.359,77.034 Z"/>
    <path fill-rule="evenodd"  fill-opacity="0" fill="rgb(0, 0, 0)"
          d="M-0.000,109.317 L107.809,109.317 L107.809,0.005 L-0.000,0.005 L-0.000,109.317 Z"/>
    <path fill-rule="evenodd"  fill="rgb(255, 255, 255)"
          d="M33.286,87.136 L36.287,87.136 L36.287,73.536 L33.286,73.536 L33.286,87.136 Z"/>
    <path fill-rule="evenodd"  fill="rgb(255, 255, 255)"
          d="M48.807,82.278 L52.140,87.136 L48.631,87.136 L45.669,82.784 L43.350,82.784 L43.350,87.136 L40.348,87.136 L40.348,73.536 L46.585,73.536 C48.319,73.536 49.664,74.021 50.560,74.915 C51.321,75.673 51.731,76.741 51.731,78.062 C51.731,80.258 50.541,81.638 48.807,82.278 ZM46.332,76.236 L43.350,76.236 L43.350,80.142 L46.390,80.142 C47.852,80.142 48.689,79.364 48.689,78.180 C48.689,76.897 47.793,76.236 46.332,76.236 Z"/>
    <path fill-rule="evenodd"  fill="rgb(255, 255, 255)"
          d="M7.113,61.193 L4.834,61.193 L4.834,65.273 L1.832,65.273 L1.832,51.673 L7.405,51.673 C10.660,51.673 12.628,53.597 12.628,56.414 C12.628,59.561 10.173,61.193 7.113,61.193 ZM7.152,54.373 L4.834,54.373 L4.834,58.531 L7.211,58.531 C8.712,58.531 9.588,57.637 9.588,56.433 C9.588,55.092 8.652,54.373 7.152,54.373 Z"/>
    <path fill-rule="evenodd"  fill="rgb(255, 255, 255)"
          d="M34.759,51.673 L37.760,51.673 L37.760,62.553 L44.561,62.553 L44.561,65.273 L34.759,65.273 L34.759,51.673 Z"/>
    <path fill-rule="evenodd"  fill="rgb(255, 255, 255)"
          d="M47.570,65.273 L50.572,65.273 L50.572,51.673 L47.570,51.673 L47.570,65.273 Z"/>
    <path fill-rule="evenodd"  fill="rgb(255, 255, 255)"
          d="M54.112,63.291 L55.885,61.173 C57.113,62.184 58.399,62.824 59.958,62.824 C61.185,62.824 61.927,62.338 61.927,61.503 C61.927,60.746 61.459,60.357 59.179,59.774 C56.430,59.075 54.657,58.317 54.657,55.577 C54.657,53.110 56.645,51.479 59.432,51.479 C61.419,51.479 63.115,52.100 64.499,53.208 L62.940,55.461 C61.732,54.626 60.543,54.120 59.393,54.120 C58.243,54.120 57.639,54.645 57.639,55.345 C57.639,56.238 58.224,56.530 60.582,57.132 C63.350,57.851 64.908,58.842 64.908,61.251 C64.908,63.951 62.842,65.467 59.900,65.467 C57.834,65.467 55.748,64.748 54.112,63.291 "/>
    <path fill-rule="evenodd"  fill="rgb(255, 255, 255)"
          d="M68.360,51.673 L71.361,51.673 L71.361,57.055 L76.897,57.055 L76.897,51.673 L79.898,51.673 L79.898,65.273 L76.897,65.273 L76.897,59.813 L71.361,59.813 L71.361,65.273 L68.360,65.273 L68.360,51.673 Z"/>
    <path fill-rule="evenodd"  fill="rgb(255, 255, 255)"
          d="M25.814,66.193 C21.543,67.577 16.941,65.238 15.553,60.981 C14.166,56.724 16.512,52.135 20.782,50.752 C25.053,49.369 29.656,51.707 31.043,55.964 C32.431,60.222 30.085,64.810 25.814,66.193 ZM26.888,57.310 C26.246,55.337 24.112,54.253 22.132,54.894 C20.152,55.535 19.065,57.662 19.708,59.635 C20.351,61.609 22.485,62.692 24.465,62.051 C26.444,61.410 27.531,59.283 26.888,57.310 Z"/>
    <path fill-rule="evenodd"  fill="rgb(255, 255, 255)"
          d="M80.013,30.171 L48.911,30.171 L46.149,35.077 L77.148,35.077 L80.013,30.171 Z"/>
    <path fill-rule="evenodd"  fill="rgb(255, 255, 255)"
          d="M34.575,35.077 L16.005,35.077 C15.235,37.486 13.355,39.506 10.764,40.345 C6.494,41.728 1.890,39.390 0.503,35.132 C-0.885,30.875 1.461,26.286 5.732,24.903 C10.003,23.520 14.605,25.858 15.993,30.115 C15.999,30.134 16.003,30.152 16.010,30.171 L37.375,30.171 L34.575,35.077 ZM11.838,31.461 C11.195,29.488 9.061,28.404 7.082,29.045 C5.102,29.686 4.015,31.813 4.658,33.787 C5.301,35.760 7.435,36.843 9.414,36.203 C11.394,35.561 12.481,33.434 11.838,31.461 Z"/>
    <path fill-rule="evenodd"  fill="rgb(255, 255, 255)"
          d="M54.541,0.005 L24.935,51.126 L29.129,53.540 L60.133,0.005 L54.541,0.005 Z"/>
</svg>
