<svg version="1.1" viewBox="0 0 104 101" xmlns="http://www.w3.org/2000/svg" xmlns:xlink="http://www.w3.org/1999/xlink">
 <desc>Created with Lunacy</desc>
 <defs>
  <path id="path_1" transform="translate(.16558 .051945)" d="m0 0h12.017v13.52h-12.017v-13.52z"/>
  <path id="path_2" transform="translate(.19353 .05663)" d="m0 0h12.873v13.072h-12.873v-13.072z"/>
  <path id="path_3" transform="translate(0 .0052536)" d="m0 105.07h102.91v-105.07h-102.91v105.07z"/>
  <clipPath id="mask_1">
   <use xlink:href="#path_1"/>
  </clipPath>
  <clipPath id="mask_2">
   <use xlink:href="#path_2"/>
  </clipPath>
  <clipPath id="mask_3">
   <use xlink:href="#path_3"/>
  </clipPath>
 </defs>
 <g transform="translate(0 -5)">
  <path transform="translate(13.938 28.948)" d="m21.443 0h-21.408l-0.035076 4.2887h18.822l2.6213-4.2887z" fill="#B0B0B0"/>
  <path transform="translate(0 92.206)" d="m0 12.866 5.6354-12.866h2.6674l5.6353 12.866h-3.0245l-1.202-2.8649h-5.5598l-1.2022 2.8649h-2.9495zm8.6782-5.3472-1.7466-4.142-1.7468 4.142h3.4933z" fill="#191919" fill-rule="evenodd"/>
  <g>
   <g transform="translate(15.047 91.5)">
    <path transform="translate(.16558 .051945)" d="m0 0h12.017v13.52h-12.017v-13.52z" fill="none"/>
    <g clip-path="url(#mask_1)">
     <path transform="translate(.16558 .051945)" d="m0 6.7596c0-3.7163 2.7902-6.7596 6.7898-6.7596 2.4554 0 3.8324 0.93383 5.042 2.1288l-1.7118 1.9791c-1.0049-0.91456-1.8602-1.4568-3.3482-1.4568-2.1957 0-3.7772 1.83-3.7772 4.1085 0 2.2411 1.5444 4.1086 3.7772 4.1086 1.4881 0 2.3994-0.5976 3.4226-1.5314l1.8228 1.9606c-1.3389 1.438-2.827 2.2225-5.3385 2.2225-3.8323 0-6.6785-2.9698-6.6785-6.7603" fill="#191919"/>
    </g>
   </g>
   <path transform="translate(28.758 91.683)" d="m8.2229 0h-2.6417l-5.5812 13.165h2.921l1.1906-2.9315h5.5062l1.1904 2.9315h2.9956l-5.581-13.165zm-1.3581 3.4553 1.7299 4.2384h-3.4596l1.7297-4.2384z" fill="#191919" fill-rule="evenodd"/>
   <path transform="translate(45.593 91.776)" d="m5.0788 0h-5.0788v13.072h5.0788c4.0929 0 6.9201-2.8569 6.9201-6.536 0-3.7163-2.8272-6.5359-6.9201-6.5359zm3.9254 6.5359c0 2.353-1.5812 3.9405-3.9254 3.9405h-2.2136v-7.8809h2.2136c2.3442 0 3.9254 1.6247 3.9254 3.9404z" fill="#191919" fill-rule="evenodd"/>
   <path transform="translate(60.736 91.776)" d="m0 0h9.8224v2.5583h-6.976v2.6518h6.139v2.5583h-6.139v2.7453h7.0693v2.5585h-9.9157v-13.072z" fill="#191919"/>
   <path transform="translate(74.012 91.776)" d="m0 0h3.0887l3.4224 5.5279 3.4234-5.5279h3.0878v13.072h-2.8462v-8.5341l-3.665 5.5833h-0.07393l-3.628-5.527v8.4778h-2.8091v-13.072z" fill="#191919"/>
   <g transform="translate(89.844 91.719)">
    <path transform="translate(.19353 .05663)" d="m0 0h12.873v13.072h-12.873v-13.072z" fill="none"/>
    <g clip-path="url(#mask_2)">
     <path transform="translate(.19353 .05663)" d="m5.0038 7.9183-5.0038-7.9183h3.3482l3.1066 5.2475 3.1628-5.2475h3.2554l-5.004 7.8618v5.2103h-2.8652v-5.1538z" fill="#191919"/>
    </g>
   </g>
   <path transform="translate(1.7489 70.681)" d="m0 0h2.8652v5.1728h5.2833v-5.1728h2.8643v13.072h-2.8643v-5.2473h-5.2833v5.2473h-2.8652v-13.072z" fill="#191919"/>
   <path transform="translate(15.433 70.587)" d="m8.222 0h-2.6417l-5.5804 13.165h2.9201l1.1906-2.9313h5.5062l1.1904 2.9313h2.9956l-5.581-13.165zm-1.3581 3.4553 1.7299 4.2386h-3.4596l1.7297-4.2386z" fill="#191919" fill-rule="evenodd"/>
   <path transform="translate(0 .0052536)" d="m0 105.07h102.91v-105.07h-102.91v105.07z" fill="none"/>
   <g clip-path="url(#mask_3)">
    <path transform="translate(31.774 70.681)" d="m0 13.072h2.8652v-13.072h-2.8652v13.072z" fill="#191919"/>
    <path transform="translate(38.515 70.681)" d="m5.953 0h-5.953v13.072h2.865v-4.1828h2.214l2.8272 4.1828h3.349l-3.1818-4.6688c1.6558-0.61599 2.7911-1.9416 2.7911-4.0523 0-1.2696-0.3908-2.2967-1.1166-3.025-0.8557-0.85918-2.1397-1.3259-3.795-1.3259zm2.0091 4.4636c0 1.1387-0.79965 1.886-2.1946 1.886h-2.9025v-3.7541h2.8464c1.3952 0 2.2507 0.63569 2.2507 1.8681z" fill="#191919" fill-rule="evenodd"/>
    <path transform="translate(1.7489 49.666)" d="m5.3206 0h-5.3206v13.072h2.8652v-3.9214h2.1765c2.9206 0 5.2646-1.5686 5.2646-4.5936 0-2.708-1.8791-4.5571-4.9857-4.5571zm2.0834 4.5752c0 1.158-0.83694 2.0169-2.2692 2.0169h-2.2696v-3.9967h2.2136c1.4323 0 2.3252 0.69107 2.3252 1.9797z" fill="#191919" fill-rule="evenodd"/>
    <path transform="translate(33.179 49.666)" d="m0 0h2.8652v10.457h6.4921v2.6148h-9.3573v-13.072z" fill="#191919"/>
    <path transform="translate(45.409 49.667)" d="m0 13.072h2.8652v-13.072h-2.8652v13.072z" fill="#191919"/>
    <path transform="translate(51.653 49.48)" d="m0 11.354 1.6926-2.036c1.1726 0.97169 2.4003 1.5875 3.8884 1.5875 1.1717 0 1.8791-0.4669 1.8791-1.2696 0-0.72829-0.44682-1.1017-2.6227-1.6619-2.6238-0.67224-4.3162-1.4005-4.3162-4.0339 0-2.3714 1.897-3.9398 4.5576-3.9398 1.8972 0 3.5157 0.5976 4.8367 1.6621l-1.4883 2.1658c-1.1536-0.80293-2.2882-1.2887-3.3855-1.2887-1.0982 0-1.6745 0.50413-1.6745 1.1768 0 0.85831 0.55825 1.1392 2.8091 1.7175 2.6417 0.69107 4.13 1.6437 4.13 3.9595 0 2.5955-1.9722 4.0523-4.7813 4.0523-1.9713 0-3.9625-0.6913-5.525-2.0916" fill="#191919"/>
    <path transform="translate(65.254 49.666)" d="m0 0h2.8652v5.1728h5.2833v-5.1728h2.8643v13.072h-2.8643v-5.2475h-5.2833v5.2475h-2.8652v-13.072z" fill="#191919"/>
    <path transform="translate(14.466 48.399)" d="m5.3722 0.38263c-4.0766 1.3294-6.3155 5.7398-4.9911 9.8317 1.3243 4.0921 5.718 6.3396 9.7944 5.0102 4.077-1.3296 6.3159-5.74 4.9914-9.8321-1.3243-4.0921-5.718-6.3394-9.7947-5.0098zm1.2883 3.9814c1.89-0.61642 3.9268 0.42554 4.5404 2.3219 0.6136 1.8966-0.4241 3.941-2.3139 4.5573-1.8891 0.6162-3.9259-0.4258-4.54-2.3221-0.61364-1.8966 0.42436-3.9411 2.3135-4.5571z" fill="#191919" fill-rule="evenodd"/>
    <path transform="translate(44.052 28.999)" d="m32.325 0h-29.689l-2.6358 4.716h29.591l2.7343-4.716z" fill="#B0B0B0"/>
    <path transform="translate(.099507 23.554)" d="m5.3722 0.38261c-4.0768 1.3294-6.3155 5.74-4.9911 9.8319 1.3243 4.0919 5.718 6.3394 9.7945 5.01 4.0767-1.3294 6.3159-5.74 4.9913-9.8319-1.3243-4.0921-5.7179-6.3396-9.7947-5.01zm1.2883 3.9814c1.8898-0.61642 3.9268 0.42554 4.5404 2.3219 0.6137 1.8966-0.4241 3.941-2.3139 4.5572-1.8891 0.6162-3.9261-0.4255-4.54-2.3221-0.61364-1.8963 0.42436-3.9409 2.3135-4.5571z" fill="#B0B0B0" fill-rule="evenodd"/>
    <path transform="translate(23.802 .0051442)" d="M28.2609 0L0 49.1366L4.0035 51.4565L33.599 0L28.2609 0Z" fill="#191919"/>
   </g>
  </g>
 </g>
</svg>
