<svg
        xmlns="http://www.w3.org/2000/svg"
        xmlns:xlink="http://www.w3.org/1999/xlink"
        width="60px" height="60px">
    <path fill-rule="evenodd"  fill-opacity="0" fill="rgb(0, 0, 0)"
          d="M0.000,0.548 L59.741,0.548 L59.741,60.000 L0.000,60.000 L0.000,0.548 Z"/>
    <path fill-rule="evenodd"  fill="rgb(140, 140, 140)"
          d="M58.868,18.894 L55.078,20.093 C55.799,20.713 56.362,21.493 56.727,22.369 C58.024,25.479 56.555,29.051 53.443,30.348 C51.459,31.178 49.186,30.892 47.466,29.602 L47.429,29.602 C46.416,28.849 43.373,30.907 41.573,32.674 C41.272,32.968 40.816,33.027 40.451,32.821 C36.538,30.585 34.819,31.726 34.819,31.726 C34.756,31.776 34.684,31.816 34.609,31.844 L34.168,32.022 L23.445,58.560 C22.959,59.722 21.644,60.291 20.463,59.852 C19.248,59.400 18.629,58.051 19.080,56.837 L24.604,35.885 L3.243,44.494 C2.963,44.617 2.661,44.681 2.356,44.687 L2.356,44.691 C1.426,44.695 0.578,44.147 0.202,43.298 C-0.323,42.113 0.209,40.728 1.394,40.203 L26.843,25.611 L25.443,8.589 C25.412,8.263 25.378,7.002 26.494,4.304 C27.790,1.192 31.362,-0.277 34.472,1.018 C35.960,1.629 37.149,2.804 37.773,4.285 C39.086,7.389 37.637,10.967 34.533,12.279 L34.487,12.279 C34.201,12.396 33.909,12.491 33.608,12.562 C31.402,13.380 31.165,14.733 31.165,14.966 L32.102,25.649 C35.081,26.265 38.921,26.742 40.938,25.908 C44.319,24.500 45.374,22.701 45.401,22.623 C45.429,22.543 45.453,22.464 45.485,22.384 C46.782,19.274 50.354,17.803 53.462,19.099 C53.636,19.175 53.810,19.255 53.979,19.343 L57.190,16.771 C57.343,16.557 57.553,16.387 57.801,16.288 C58.517,15.992 59.341,16.336 59.637,17.055 C59.932,17.775 59.587,18.597 58.868,18.894 ZM20.881,57.343 C20.870,57.385 20.858,57.425 20.841,57.465 C20.741,57.706 20.856,57.980 21.094,58.078 C21.333,58.179 21.608,58.066 21.709,57.826 L31.745,33.000 L26.777,35.006 L20.881,57.343 ZM19.385,32.052 L2.283,41.858 L2.173,41.909 L2.173,41.905 C1.934,42.004 1.820,42.281 1.922,42.518 C2.020,42.758 2.295,42.873 2.535,42.772 L21.713,35.032 L21.039,33.401 C20.718,32.726 20.110,32.233 19.385,32.052 ZM27.520,10.598 L28.662,24.788 L28.795,24.819 L28.795,24.827 C29.160,24.937 29.658,25.067 30.173,25.210 L29.282,15.069 L29.282,14.991 C29.338,14.052 29.722,13.159 30.367,12.472 C30.184,12.417 30.000,12.352 29.822,12.274 C28.932,11.907 28.141,11.331 27.520,10.598 ZM33.029,10.770 C33.275,10.675 33.541,10.591 33.825,10.518 C35.975,9.610 36.982,7.130 36.076,4.981 C35.168,2.831 32.689,1.825 30.541,2.731 C29.501,3.159 28.675,3.981 28.250,5.021 C27.923,5.809 27.843,6.679 28.022,7.513 C28.503,9.795 30.747,11.253 33.029,10.770 ZM45.100,25.660 C44.052,26.473 42.895,27.139 41.661,27.635 C37.944,29.177 30.466,27.244 28.662,26.738 L21.366,30.923 C21.972,31.386 22.453,31.989 22.775,32.678 L23.455,34.328 L33.806,30.140 C34.392,29.755 36.613,28.690 40.784,30.848 C41.806,29.915 43.857,28.234 45.815,27.719 C45.450,27.082 45.206,26.385 45.100,25.660 ZM49.507,20.808 L49.511,20.831 C48.480,21.253 47.658,22.066 47.221,23.092 C46.792,24.128 46.792,25.290 47.221,26.326 C48.114,28.480 50.585,29.503 52.739,28.610 C54.895,27.717 55.918,25.246 55.025,23.092 C54.134,20.938 51.663,19.913 49.507,20.808 Z"/>
</svg>
